<?xml version="1.0" encoding="utf-8" standalone="no"?>
<!DOCTYPE svg PUBLIC "-//W3C//DTD SVG 1.1//EN"
  "http://www.w3.org/Graphics/SVG/1.1/DTD/svg11.dtd">
<svg xmlns:xlink="http://www.w3.org/1999/xlink" width="288pt" height="288pt" viewBox="0 0 288 288" xmlns="http://www.w3.org/2000/svg" version="1.1">
 <metadata>
  <rdf:RDF xmlns:dc="http://purl.org/dc/elements/1.1/" xmlns:cc="http://creativecommons.org/ns#" xmlns:rdf="http://www.w3.org/1999/02/22-rdf-syntax-ns#">
   <cc:Work>
    <dc:type rdf:resource="http://purl.org/dc/dcmitype/StillImage"/>
    <dc:date>2026-01-16T23:26:54.125299</dc:date>
    <dc:format>image/svg+xml</dc:format>
    <dc:creator>
     <cc:Agent>
      <dc:title>Matplotlib v3.9.4, https://matplotlib.org/</dc:title>
     </cc:Agent>
    </dc:creator>
   </cc:Work>
  </rdf:RDF>
 </metadata>
 <defs>
  <style type="text/css">*{stroke-linejoin: round; stroke-linecap: butt}</style>
 </defs>
 <g id="figure_1">
  <g id="patch_1">
   <path d="M 0 288 
L 288 288 
L 288 0 
L 0 0 
z
" style="fill: #ffffff"/>
  </g>
  <g id="axes_1">
   <g id="patch_2">
    <path d="M 36 256.32 
L 259.2 256.32 
L 259.2 34.56 
L 36 34.56 
z
" style="fill: #ffffff"/>
   </g>
   <g id="PathCollection_1">
    <defs>
     <path id="me80ddb4c25" d="M 0 3 
C 0.795609 3 1.55874 2.683901 2.12132 2.12132 
C 2.683901 1.55874 3 0.795609 3 0 
C 3 -0.795609 2.683901 -1.55874 2.12132 -2.12132 
C 1.55874 -2.683901 0.795609 -3 0 -3 
C -0.795609 -3 -1.55874 -2.683901 -2.12132 -2.12132 
C -2.683901 -1.55874 -3 -0.795609 -3 0 
C -3 0.795609 -2.683901 1.55874 -2.12132 2.12132 
C -1.55874 2.683901 -0.795609 3 0 3 
z
" style="stroke: #808080"/>
    </defs>
    <g clip-path="url(#p513afb6543)">
     <use xlink:href="#me80ddb4c25" x="120.102871" y="218.499647" style="fill: #808080; stroke: #808080"/>
     <use xlink:href="#me80ddb4c25" x="53.657151" y="192.206617" style="fill: #808080; stroke: #808080"/>
     <use xlink:href="#me80ddb4c25" x="242.268649" y="228.148465" style="fill: #808080; stroke: #808080"/>
     <use xlink:href="#me80ddb4c25" x="76.928112" y="158.918193" style="fill: #808080; stroke: #808080"/>
     <use xlink:href="#me80ddb4c25" x="46.145455" y="175.661367" style="fill: #808080; stroke: #808080"/>
     <use xlink:href="#me80ddb4c25" x="236.345797" y="218.258427" style="fill: #808080; stroke: #808080"/>
     <use xlink:href="#me80ddb4c25" x="246.709195" y="196.789806" style="fill: #808080; stroke: #808080"/>
     <use xlink:href="#me80ddb4c25" x="63.926277" y="191.241735" style="fill: #808080; stroke: #808080"/>
     <use xlink:href="#me80ddb4c25" x="249.002864" y="157.22965" style="fill: #808080; stroke: #808080"/>
     <use xlink:href="#me80ddb4c25" x="169.478218" y="163.260162" style="fill: #808080; stroke: #808080"/>
     <use xlink:href="#me80ddb4c25" x="249.054545" y="165.913587" style="fill: #808080; stroke: #808080"/>
     <use xlink:href="#me80ddb4c25" x="52.135877" y="202.337876" style="fill: #808080; stroke: #808080"/>
     <use xlink:href="#me80ddb4c25" x="113.672201" y="131.901502" style="fill: #808080; stroke: #808080"/>
     <use xlink:href="#me80ddb4c25" x="199.667018" y="239.727048" style="fill: #808080; stroke: #808080"/>
     <use xlink:href="#me80ddb4c25" x="57.731732" y="187.623428" style="fill: #808080; stroke: #808080"/>
     <use xlink:href="#me80ddb4c25" x="246.207049" y="169.290673" style="fill: #808080; stroke: #808080"/>
     <use xlink:href="#me80ddb4c25" x="192.550578" y="134.313706" style="fill: #808080; stroke: #808080"/>
     <use xlink:href="#me80ddb4c25" x="57.729102" y="171.702878" style="fill: #808080; stroke: #808080"/>
     <use xlink:href="#me80ddb4c25" x="51.073917" y="195.824924" style="fill: #808080; stroke: #808080"/>
     <use xlink:href="#me80ddb4c25" x="107.027521" y="52.29875" style="fill: #808080; stroke: #808080"/>
     <use xlink:href="#me80ddb4c25" x="249.054545" y="223.565277" style="fill: #808080; stroke: #808080"/>
     <use xlink:href="#me80ddb4c25" x="125.064787" y="113.568747" style="fill: #808080; stroke: #808080"/>
     <use xlink:href="#me80ddb4c25" x="249.054545" y="190.035633" style="fill: #808080; stroke: #808080"/>
     <use xlink:href="#me80ddb4c25" x="195.925367" y="78.109339" style="fill: #808080; stroke: #808080"/>
     <use xlink:href="#me80ddb4c25" x="212.074981" y="219.464529" style="fill: #808080; stroke: #808080"/>
     <use xlink:href="#me80ddb4c25" x="249.027915" y="196.307365" style="fill: #808080; stroke: #808080"/>
     <use xlink:href="#me80ddb4c25" x="108.929141" y="222.117954" style="fill: #808080; stroke: #808080"/>
     <use xlink:href="#me80ddb4c25" x="249.054545" y="174.597523" style="fill: #808080; stroke: #808080"/>
     <use xlink:href="#me80ddb4c25" x="207.058375" y="161.330398" style="fill: #808080; stroke: #808080"/>
     <use xlink:href="#me80ddb4c25" x="55.293448" y="167.1568" style="fill: #808080; stroke: #808080"/>
     <use xlink:href="#me80ddb4c25" x="82.461119" y="165.189925" style="fill: #808080; stroke: #808080"/>
     <use xlink:href="#me80ddb4c25" x="67.468339" y="184.487562" style="fill: #808080; stroke: #808080"/>
     <use xlink:href="#me80ddb4c25" x="109.05634" y="188.82953" style="fill: #808080; stroke: #808080"/>
     <use xlink:href="#me80ddb4c25" x="248.766243" y="244.310236" style="fill: #808080; stroke: #808080"/>
     <use xlink:href="#me80ddb4c25" x="97.0724" y="161.089177" style="fill: #808080; stroke: #808080"/>
     <use xlink:href="#me80ddb4c25" x="229.073408" y="228.389686" style="fill: #808080; stroke: #808080"/>
     <use xlink:href="#me80ddb4c25" x="113.528237" y="144.927407" style="fill: #808080; stroke: #808080"/>
     <use xlink:href="#me80ddb4c25" x="246.101585" y="189.311971" style="fill: #808080; stroke: #808080"/>
     <use xlink:href="#me80ddb4c25" x="249.015234" y="189.553192" style="fill: #808080; stroke: #808080"/>
     <use xlink:href="#me80ddb4c25" x="245.725144" y="174.356303" style="fill: #808080; stroke: #808080"/>
     <use xlink:href="#me80ddb4c25" x="58.847206" y="190.276853" style="fill: #808080; stroke: #808080"/>
     <use xlink:href="#me80ddb4c25" x="248.992475" y="142.032761" style="fill: #808080; stroke: #808080"/>
     <use xlink:href="#me80ddb4c25" x="206.964962" y="227.666025" style="fill: #808080; stroke: #808080"/>
     <use xlink:href="#me80ddb4c25" x="234.267686" y="190.276853" style="fill: #808080; stroke: #808080"/>
     <use xlink:href="#me80ddb4c25" x="66.627899" y="123.619599" style="fill: #808080; stroke: #808080"/>
     <use xlink:href="#me80ddb4c25" x="240.025325" y="196.789806" style="fill: #808080; stroke: #808080"/>
     <use xlink:href="#me80ddb4c25" x="245.912109" y="45.303356" style="fill: #808080; stroke: #808080"/>
     <use xlink:href="#me80ddb4c25" x="249.054545" y="154.335004" style="fill: #808080; stroke: #808080"/>
     <use xlink:href="#me80ddb4c25" x="200.992838" y="187.382208" style="fill: #808080; stroke: #808080"/>
     <use xlink:href="#me80ddb4c25" x="55.054647" y="173.855306" style="fill: #808080; stroke: #808080"/>
     <use xlink:href="#me80ddb4c25" x="72.69129" y="157.47087" style="fill: #808080; stroke: #808080"/>
     <use xlink:href="#me80ddb4c25" x="196.07297" y="151.199138" style="fill: #808080; stroke: #808080"/>
     <use xlink:href="#me80ddb4c25" x="58.319469" y="210.780592" style="fill: #808080; stroke: #808080"/>
     <use xlink:href="#me80ddb4c25" x="236.873766" y="210.298151" style="fill: #808080; stroke: #808080"/>
     <use xlink:href="#me80ddb4c25" x="224.178676" y="51.575088" style="fill: #808080; stroke: #808080"/>
     <use xlink:href="#me80ddb4c25" x="112.439348" y="120.32292" style="fill: #808080; stroke: #808080"/>
     <use xlink:href="#me80ddb4c25" x="121.085757" y="206.679844" style="fill: #808080; stroke: #808080"/>
     <use xlink:href="#me80ddb4c25" x="99.93913" y="206.679844" style="fill: #808080; stroke: #808080"/>
     <use xlink:href="#me80ddb4c25" x="88.75741" y="186.176105" style="fill: #808080; stroke: #808080"/>
     <use xlink:href="#me80ddb4c25" x="131.98947" y="195.583703" style="fill: #808080; stroke: #808080"/>
     <use xlink:href="#me80ddb4c25" x="60.092752" y="147.822052" style="fill: #808080; stroke: #808080"/>
     <use xlink:href="#me80ddb4c25" x="244.704681" y="225.012599" style="fill: #808080; stroke: #808080"/>
     <use xlink:href="#me80ddb4c25" x="249.054545" y="239.485827" style="fill: #808080; stroke: #808080"/>
     <use xlink:href="#me80ddb4c25" x="220.194233" y="149.028154" style="fill: #808080; stroke: #808080"/>
     <use xlink:href="#me80ddb4c25" x="249.054545" y="137.449572" style="fill: #808080; stroke: #808080"/>
     <use xlink:href="#me80ddb4c25" x="64.833657" y="175.321185" style="fill: #808080; stroke: #808080"/>
     <use xlink:href="#me80ddb4c25" x="244.956527" y="44.64" style="fill: #808080; stroke: #808080"/>
     <use xlink:href="#me80ddb4c25" x="242.496874" y="199.925672" style="fill: #808080; stroke: #808080"/>
     <use xlink:href="#me80ddb4c25" x="100.246412" y="114.774849" style="fill: #808080; stroke: #808080"/>
     <use xlink:href="#me80ddb4c25" x="211.144735" y="141.3091" style="fill: #808080; stroke: #808080"/>
     <use xlink:href="#me80ddb4c25" x="208.472697" y="137.208352" style="fill: #808080; stroke: #808080"/>
     <use xlink:href="#me80ddb4c25" x="201.361288" y="205.956183" style="fill: #808080; stroke: #808080"/>
     <use xlink:href="#me80ddb4c25" x="124.156486" y="147.580832" style="fill: #808080; stroke: #808080"/>
     <use xlink:href="#me80ddb4c25" x="232.934771" y="192.206617" style="fill: #808080; stroke: #808080"/>
     <use xlink:href="#me80ddb4c25" x="211.405399" y="166.878468" style="fill: #808080; stroke: #808080"/>
     <use xlink:href="#me80ddb4c25" x="137.480447" y="131.17784" style="fill: #808080; stroke: #808080"/>
     <use xlink:href="#me80ddb4c25" x="129.86458" y="201.614215" style="fill: #808080; stroke: #808080"/>
     <use xlink:href="#me80ddb4c25" x="204.614971" y="92.341346" style="fill: #808080; stroke: #808080"/>
     <use xlink:href="#me80ddb4c25" x="246.825024" y="94.029889" style="fill: #808080; stroke: #808080"/>
     <use xlink:href="#me80ddb4c25" x="63.735876" y="171.461657" style="fill: #808080; stroke: #808080"/>
     <use xlink:href="#me80ddb4c25" x="190.08773" y="157.953311" style="fill: #808080; stroke: #808080"/>
     <use xlink:href="#me80ddb4c25" x="101.038144" y="139.620556" style="fill: #808080; stroke: #808080"/>
     <use xlink:href="#me80ddb4c25" x="127.323007" y="159.641855" style="fill: #808080; stroke: #808080"/>
     <use xlink:href="#me80ddb4c25" x="249.041238" y="244.792677" style="fill: #808080; stroke: #808080"/>
     <use xlink:href="#me80ddb4c25" x="107.611945" y="118.634376" style="fill: #808080; stroke: #808080"/>
     <use xlink:href="#me80ddb4c25" x="88.192209" y="189.070751" style="fill: #808080; stroke: #808080"/>
     <use xlink:href="#me80ddb4c25" x="248.998581" y="164.225043" style="fill: #808080; stroke: #808080"/>
     <use xlink:href="#me80ddb4c25" x="203.135136" y="132.383943" style="fill: #808080; stroke: #808080"/>
     <use xlink:href="#me80ddb4c25" x="91.653043" y="71.930384" style="fill: #808080; stroke: #808080"/>
     <use xlink:href="#me80ddb4c25" x="174.397849" y="131.660281" style="fill: #808080; stroke: #808080"/>
     <use xlink:href="#me80ddb4c25" x="249.031371" y="227.907245" style="fill: #808080; stroke: #808080"/>
     <use xlink:href="#me80ddb4c25" x="170.238521" y="168.808232" style="fill: #808080; stroke: #808080"/>
     <use xlink:href="#me80ddb4c25" x="52.118802" y="185.452444" style="fill: #808080; stroke: #808080"/>
     <use xlink:href="#me80ddb4c25" x="249.054545" y="216.569883" style="fill: #808080; stroke: #808080"/>
     <use xlink:href="#me80ddb4c25" x="73.858106" y="212.951576" style="fill: #808080; stroke: #808080"/>
     <use xlink:href="#me80ddb4c25" x="66.280977" y="123.959782" style="fill: #808080; stroke: #808080"/>
     <use xlink:href="#me80ddb4c25" x="238.73839" y="229.595788" style="fill: #808080; stroke: #808080"/>
     <use xlink:href="#me80ddb4c25" x="195.055293" y="159.400634" style="fill: #808080; stroke: #808080"/>
     <use xlink:href="#me80ddb4c25" x="232.189303" y="158.918193" style="fill: #808080; stroke: #808080"/>
     <use xlink:href="#me80ddb4c25" x="112.713423" y="96.964738" style="fill: #808080; stroke: #808080"/>
     <use xlink:href="#me80ddb4c25" x="249.001353" y="185.693664" style="fill: #808080; stroke: #808080"/>
     <use xlink:href="#me80ddb4c25" x="60.878862" y="154.093784" style="fill: #808080; stroke: #808080"/>
     <use xlink:href="#me80ddb4c25" x="249.054545" y="141.791541" style="fill: #808080; stroke: #808080"/>
     <use xlink:href="#me80ddb4c25" x="246.864834" y="246.24" style="fill: #808080; stroke: #808080"/>
     <use xlink:href="#me80ddb4c25" x="121.3861" y="94.27111" style="fill: #808080; stroke: #808080"/>
     <use xlink:href="#me80ddb4c25" x="177.808203" y="183.040239" style="fill: #808080; stroke: #808080"/>
     <use xlink:href="#me80ddb4c25" x="232.903413" y="171.220437" style="fill: #808080; stroke: #808080"/>
     <use xlink:href="#me80ddb4c25" x="220.289492" y="170.737996" style="fill: #808080; stroke: #808080"/>
     <use xlink:href="#me80ddb4c25" x="76.264771" y="113.550191" style="fill: #808080; stroke: #808080"/>
     <use xlink:href="#me80ddb4c25" x="231.297364" y="184.728783" style="fill: #808080; stroke: #808080"/>
     <use xlink:href="#me80ddb4c25" x="249.037587" y="218.017206" style="fill: #808080; stroke: #808080"/>
     <use xlink:href="#me80ddb4c25" x="233.900919" y="125.62977" style="fill: #808080; stroke: #808080"/>
     <use xlink:href="#me80ddb4c25" x="248.992509" y="183.763901" style="fill: #808080; stroke: #808080"/>
     <use xlink:href="#me80ddb4c25" x="249.025834" y="203.785199" style="fill: #808080; stroke: #808080"/>
     <use xlink:href="#me80ddb4c25" x="221.849179" y="141.3091" style="fill: #808080; stroke: #808080"/>
     <use xlink:href="#me80ddb4c25" x="246.12972" y="197.031026" style="fill: #808080; stroke: #808080"/>
     <use xlink:href="#me80ddb4c25" x="215.228703" y="68.762046" style="fill: #808080; stroke: #808080"/>
     <use xlink:href="#me80ddb4c25" x="245.324042" y="172.185319" style="fill: #808080; stroke: #808080"/>
     <use xlink:href="#me80ddb4c25" x="229.597974" y="209.092049" style="fill: #808080; stroke: #808080"/>
     <use xlink:href="#me80ddb4c25" x="249.054545" y="226.459922" style="fill: #808080; stroke: #808080"/>
     <use xlink:href="#me80ddb4c25" x="52.664771" y="196.789806" style="fill: #808080; stroke: #808080"/>
     <use xlink:href="#me80ddb4c25" x="90.696109" y="109.467999" style="fill: #808080; stroke: #808080"/>
     <use xlink:href="#me80ddb4c25" x="65.225661" y="103.437487" style="fill: #808080; stroke: #808080"/>
     <use xlink:href="#me80ddb4c25" x="246.376753" y="223.806497" style="fill: #808080; stroke: #808080"/>
     <use xlink:href="#me80ddb4c25" x="249.054545" y="234.661418" style="fill: #808080; stroke: #808080"/>
     <use xlink:href="#me80ddb4c25" x="249.053962" y="162.054059" style="fill: #808080; stroke: #808080"/>
     <use xlink:href="#me80ddb4c25" x="215.978742" y="200.890553" style="fill: #808080; stroke: #808080"/>
     <use xlink:href="#me80ddb4c25" x="249.054545" y="144.444966" style="fill: #808080; stroke: #808080"/>
     <use xlink:href="#me80ddb4c25" x="249.004752" y="177.492169" style="fill: #808080; stroke: #808080"/>
     <use xlink:href="#me80ddb4c25" x="166.914371" y="141.3091" style="fill: #808080; stroke: #808080"/>
     <use xlink:href="#me80ddb4c25" x="74.985936" y="149.993036" style="fill: #808080; stroke: #808080"/>
     <use xlink:href="#me80ddb4c25" x="245.853966" y="211.986695" style="fill: #808080; stroke: #808080"/>
     <use xlink:href="#me80ddb4c25" x="249.054545" y="212.227915" style="fill: #808080; stroke: #808080"/>
     <use xlink:href="#me80ddb4c25" x="55.800458" y="193.65394" style="fill: #808080; stroke: #808080"/>
     <use xlink:href="#me80ddb4c25" x="110.569138" y="174.115082" style="fill: #808080; stroke: #808080"/>
     <use xlink:href="#me80ddb4c25" x="87.880767" y="137.932013" style="fill: #808080; stroke: #808080"/>
     <use xlink:href="#me80ddb4c25" x="178.196906" y="111.156542" style="fill: #808080; stroke: #808080"/>
     <use xlink:href="#me80ddb4c25" x="249.044078" y="218.982088" style="fill: #808080; stroke: #808080"/>
     <use xlink:href="#me80ddb4c25" x="68.045627" y="206.679844" style="fill: #808080; stroke: #808080"/>
     <use xlink:href="#me80ddb4c25" x="231.932587" y="217.052324" style="fill: #808080; stroke: #808080"/>
     <use xlink:href="#me80ddb4c25" x="249.013674" y="225.012599" style="fill: #808080; stroke: #808080"/>
     <use xlink:href="#me80ddb4c25" x="234.605066" y="97.648196" style="fill: #808080; stroke: #808080"/>
     <use xlink:href="#me80ddb4c25" x="51.999854" y="188.58831" style="fill: #808080; stroke: #808080"/>
     <use xlink:href="#me80ddb4c25" x="61.343909" y="141.698763" style="fill: #808080; stroke: #808080"/>
     <use xlink:href="#me80ddb4c25" x="109.622768" y="184.005121" style="fill: #808080; stroke: #808080"/>
     <use xlink:href="#me80ddb4c25" x="85.815003" y="108.020676" style="fill: #808080; stroke: #808080"/>
     <use xlink:href="#me80ddb4c25" x="159.223796" y="194.377601" style="fill: #808080; stroke: #808080"/>
     <use xlink:href="#me80ddb4c25" x="103.056373" y="116.50725" style="fill: #808080; stroke: #808080"/>
     <use xlink:href="#me80ddb4c25" x="248.980615" y="141.791541" style="fill: #808080; stroke: #808080"/>
     <use xlink:href="#me80ddb4c25" x="59.974398" y="184.487562" style="fill: #808080; stroke: #808080"/>
     <use xlink:href="#me80ddb4c25" x="55.96586" y="195.824924" style="fill: #808080; stroke: #808080"/>
     <use xlink:href="#me80ddb4c25" x="110.73557" y="245.99878" style="fill: #808080; stroke: #808080"/>
     <use xlink:href="#me80ddb4c25" x="56.327847" y="179.421932" style="fill: #808080; stroke: #808080"/>
    </g>
   </g>
   <g id="matplotlib.axis_1">
    <g id="xtick_1">
     <g id="line2d_1">
      <defs>
       <path id="m2a46b7703c" d="M 0 0 
L 0 3.5 
" style="stroke: #000000; stroke-width: 0.8"/>
      </defs>
      <g>
       <use xlink:href="#m2a46b7703c" x="139.279229" y="256.32" style="stroke: #000000; stroke-width: 0.8"/>
      </g>
     </g>
     <g id="text_1">
      <!-- 0.5 -->
      <g transform="translate(126.556729 275.4775) scale(0.16 -0.16)">
       <defs>
        <path id="DejaVuSans-30" d="M 2034 4250 
Q 1547 4250 1301 3770 
Q 1056 3291 1056 2328 
Q 1056 1369 1301 889 
Q 1547 409 2034 409 
Q 2525 409 2770 889 
Q 3016 1369 3016 2328 
Q 3016 3291 2770 3770 
Q 2525 4250 2034 4250 
z
M 2034 4750 
Q 2819 4750 3233 4129 
Q 3647 3509 3647 2328 
Q 3647 1150 3233 529 
Q 2819 -91 2034 -91 
Q 1250 -91 836 529 
Q 422 1150 422 2328 
Q 422 3509 836 4129 
Q 1250 4750 2034 4750 
z
" transform="scale(0.015625)"/>
        <path id="DejaVuSans-2e" d="M 684 794 
L 1344 794 
L 1344 0 
L 684 0 
L 684 794 
z
" transform="scale(0.015625)"/>
        <path id="DejaVuSans-35" d="M 691 4666 
L 3169 4666 
L 3169 4134 
L 1269 4134 
L 1269 2991 
Q 1406 3038 1543 3061 
Q 1681 3084 1819 3084 
Q 2600 3084 3056 2656 
Q 3513 2228 3513 1497 
Q 3513 744 3044 326 
Q 2575 -91 1722 -91 
Q 1428 -91 1123 -41 
Q 819 9 494 109 
L 494 744 
Q 775 591 1075 516 
Q 1375 441 1709 441 
Q 2250 441 2565 725 
Q 2881 1009 2881 1497 
Q 2881 1984 2565 2268 
Q 2250 2553 1709 2553 
Q 1456 2553 1204 2497 
Q 953 2441 691 2322 
L 691 4666 
z
" transform="scale(0.015625)"/>
       </defs>
       <use xlink:href="#DejaVuSans-30"/>
       <use xlink:href="#DejaVuSans-2e" x="63.623047"/>
       <use xlink:href="#DejaVuSans-35" x="95.410156"/>
      </g>
     </g>
    </g>
    <g id="xtick_2">
     <g id="line2d_2">
      <g>
       <use xlink:href="#m2a46b7703c" x="249.054545" y="256.32" style="stroke: #000000; stroke-width: 0.8"/>
      </g>
     </g>
     <g id="text_2">
      <!-- 1.0 -->
      <g transform="translate(236.332045 275.4775) scale(0.16 -0.16)">
       <defs>
        <path id="DejaVuSans-31" d="M 794 531 
L 1825 531 
L 1825 4091 
L 703 3866 
L 703 4441 
L 1819 4666 
L 2450 4666 
L 2450 531 
L 3481 531 
L 3481 0 
L 794 0 
L 794 531 
z
" transform="scale(0.015625)"/>
       </defs>
       <use xlink:href="#DejaVuSans-31"/>
       <use xlink:href="#DejaVuSans-2e" x="63.623047"/>
       <use xlink:href="#DejaVuSans-30" x="95.410156"/>
      </g>
     </g>
    </g>
    <g id="text_3">
     <!-- $\eta$ -->
     <g transform="translate(142.48 294.93) scale(0.16 -0.16)">
      <defs>
       <path id="DejaVuSans-Oblique-3b7" d="M 3703 2113 
L 3034 -1331 
L 2459 -1331 
L 3125 2094 
Q 3222 2591 3075 2838 
Q 2931 3084 2544 3084 
Q 2078 3084 1750 2788 
Q 1425 2491 1325 1978 
L 941 0 
L 363 0 
L 1044 3500 
L 1622 3500 
L 1516 2956 
Q 1781 3272 2094 3428 
Q 2403 3584 2769 3584 
Q 3372 3584 3609 3213 
Q 3844 2838 3703 2113 
z
" transform="scale(0.015625)"/>
      </defs>
      <use xlink:href="#DejaVuSans-Oblique-3b7"/>
     </g>
    </g>
   </g>
   <g id="matplotlib.axis_2">
    <g id="ytick_1">
     <g id="line2d_3">
      <defs>
       <path id="m97750ec3ae" d="M 0 0 
L -3.5 0 
" style="stroke: #000000; stroke-width: 0.8"/>
      </defs>
      <g>
       <use xlink:href="#m97750ec3ae" x="36" y="228.872127" style="stroke: #000000; stroke-width: 0.8"/>
      </g>
     </g>
     <g id="text_4">
      <!-- 5.0 -->
      <g transform="translate(3.555 234.950877) scale(0.16 -0.16)">
       <use xlink:href="#DejaVuSans-35"/>
       <use xlink:href="#DejaVuSans-2e" x="63.623047"/>
       <use xlink:href="#DejaVuSans-30" x="95.410156"/>
      </g>
     </g>
    </g>
    <g id="ytick_2">
     <g id="line2d_4">
      <g>
       <use xlink:href="#m97750ec3ae" x="36" y="186.658546" style="stroke: #000000; stroke-width: 0.8"/>
      </g>
     </g>
     <g id="text_5">
      <!-- 7.5 -->
      <g transform="translate(3.555 192.737296) scale(0.16 -0.16)">
       <defs>
        <path id="DejaVuSans-37" d="M 525 4666 
L 3525 4666 
L 3525 4397 
L 1831 0 
L 1172 0 
L 2766 4134 
L 525 4134 
L 525 4666 
z
" transform="scale(0.015625)"/>
       </defs>
       <use xlink:href="#DejaVuSans-37"/>
       <use xlink:href="#DejaVuSans-2e" x="63.623047"/>
       <use xlink:href="#DejaVuSans-35" x="95.410156"/>
      </g>
     </g>
    </g>
    <g id="ytick_3">
     <g id="line2d_5">
      <g>
       <use xlink:href="#m97750ec3ae" x="36" y="144.444966" style="stroke: #000000; stroke-width: 0.8"/>
      </g>
     </g>
     <g id="text_6">
      <!-- 10.0 -->
      <g transform="translate(-6.625 150.523716) scale(0.16 -0.16)">
       <use xlink:href="#DejaVuSans-31"/>
       <use xlink:href="#DejaVuSans-30" x="63.623047"/>
       <use xlink:href="#DejaVuSans-2e" x="127.246094"/>
       <use xlink:href="#DejaVuSans-30" x="159.033203"/>
      </g>
     </g>
    </g>
    <g id="ytick_4">
     <g id="line2d_6">
      <g>
       <use xlink:href="#m97750ec3ae" x="36" y="102.231385" style="stroke: #000000; stroke-width: 0.8"/>
      </g>
     </g>
     <g id="text_7">
      <!-- 12.5 -->
      <g transform="translate(-6.625 108.310135) scale(0.16 -0.16)">
       <defs>
        <path id="DejaVuSans-32" d="M 1228 531 
L 3431 531 
L 3431 0 
L 469 0 
L 469 531 
Q 828 903 1448 1529 
Q 2069 2156 2228 2338 
Q 2531 2678 2651 2914 
Q 2772 3150 2772 3378 
Q 2772 3750 2511 3984 
Q 2250 4219 1831 4219 
Q 1534 4219 1204 4116 
Q 875 4013 500 3803 
L 500 4441 
Q 881 4594 1212 4672 
Q 1544 4750 1819 4750 
Q 2544 4750 2975 4387 
Q 3406 4025 3406 3419 
Q 3406 3131 3298 2873 
Q 3191 2616 2906 2266 
Q 2828 2175 2409 1742 
Q 1991 1309 1228 531 
z
" transform="scale(0.015625)"/>
       </defs>
       <use xlink:href="#DejaVuSans-31"/>
       <use xlink:href="#DejaVuSans-32" x="63.623047"/>
       <use xlink:href="#DejaVuSans-2e" x="127.246094"/>
       <use xlink:href="#DejaVuSans-35" x="159.033203"/>
      </g>
     </g>
    </g>
    <g id="ytick_5">
     <g id="line2d_7">
      <g>
       <use xlink:href="#m97750ec3ae" x="36" y="60.017804" style="stroke: #000000; stroke-width: 0.8"/>
      </g>
     </g>
     <g id="text_8">
      <!-- 15.0 -->
      <g transform="translate(-6.625 66.096554) scale(0.16 -0.16)">
       <use xlink:href="#DejaVuSans-31"/>
       <use xlink:href="#DejaVuSans-35" x="63.623047"/>
       <use xlink:href="#DejaVuSans-2e" x="127.246094"/>
       <use xlink:href="#DejaVuSans-30" x="159.033203"/>
      </g>
     </g>
    </g>
    <g id="text_9">
     <!-- MUCW -->
     <g transform="translate(-13.9525 171.69375) rotate(-90) scale(0.16 -0.16)">
      <defs>
       <path id="DejaVuSans-4d" d="M 628 4666 
L 1569 4666 
L 2759 1491 
L 3956 4666 
L 4897 4666 
L 4897 0 
L 4281 0 
L 4281 4097 
L 3078 897 
L 2444 897 
L 1241 4097 
L 1241 0 
L 628 0 
L 628 4666 
z
" transform="scale(0.015625)"/>
       <path id="DejaVuSans-55" d="M 556 4666 
L 1191 4666 
L 1191 1831 
Q 1191 1081 1462 751 
Q 1734 422 2344 422 
Q 2950 422 3222 751 
Q 3494 1081 3494 1831 
L 3494 4666 
L 4128 4666 
L 4128 1753 
Q 4128 841 3676 375 
Q 3225 -91 2344 -91 
Q 1459 -91 1007 375 
Q 556 841 556 1753 
L 556 4666 
z
" transform="scale(0.015625)"/>
       <path id="DejaVuSans-43" d="M 4122 4306 
L 4122 3641 
Q 3803 3938 3442 4084 
Q 3081 4231 2675 4231 
Q 1875 4231 1450 3742 
Q 1025 3253 1025 2328 
Q 1025 1406 1450 917 
Q 1875 428 2675 428 
Q 3081 428 3442 575 
Q 3803 722 4122 1019 
L 4122 359 
Q 3791 134 3420 21 
Q 3050 -91 2638 -91 
Q 1578 -91 968 557 
Q 359 1206 359 2328 
Q 359 3453 968 4101 
Q 1578 4750 2638 4750 
Q 3056 4750 3426 4639 
Q 3797 4528 4122 4306 
z
" transform="scale(0.015625)"/>
       <path id="DejaVuSans-57" d="M 213 4666 
L 850 4666 
L 1831 722 
L 2809 4666 
L 3519 4666 
L 4500 722 
L 5478 4666 
L 6119 4666 
L 4947 0 
L 4153 0 
L 3169 4050 
L 2175 0 
L 1381 0 
L 213 4666 
z
" transform="scale(0.015625)"/>
      </defs>
      <use xlink:href="#DejaVuSans-4d"/>
      <use xlink:href="#DejaVuSans-55" x="86.279297"/>
      <use xlink:href="#DejaVuSans-43" x="159.472656"/>
      <use xlink:href="#DejaVuSans-57" x="229.296875"/>
     </g>
    </g>
   </g>
   <g id="patch_3">
    <path d="M 36 256.32 
L 36 34.56 
" style="fill: none; stroke: #000000; stroke-linejoin: miter; stroke-linecap: square"/>
   </g>
   <g id="patch_4">
    <path d="M 36 256.32 
L 259.2 256.32 
" style="fill: none; stroke: #000000; stroke-linejoin: miter; stroke-linecap: square"/>
   </g>
  </g>
 </g>
 <defs>
  <clipPath id="p513afb6543">
   <rect x="36" y="34.56" width="223.2" height="221.76"/>
  </clipPath>
 </defs>
</svg>
