<?xml version="1.0" encoding="utf-8" standalone="no"?>
<!DOCTYPE svg PUBLIC "-//W3C//DTD SVG 1.1//EN"
  "http://www.w3.org/Graphics/SVG/1.1/DTD/svg11.dtd">
<svg xmlns:xlink="http://www.w3.org/1999/xlink" width="288pt" height="288pt" viewBox="0 0 288 288" xmlns="http://www.w3.org/2000/svg" version="1.1">
 <metadata>
  <rdf:RDF xmlns:dc="http://purl.org/dc/elements/1.1/" xmlns:cc="http://creativecommons.org/ns#" xmlns:rdf="http://www.w3.org/1999/02/22-rdf-syntax-ns#">
   <cc:Work>
    <dc:type rdf:resource="http://purl.org/dc/dcmitype/StillImage"/>
    <dc:date>2026-01-21T21:34:23.456588</dc:date>
    <dc:format>image/svg+xml</dc:format>
    <dc:creator>
     <cc:Agent>
      <dc:title>Matplotlib v3.9.4, https://matplotlib.org/</dc:title>
     </cc:Agent>
    </dc:creator>
   </cc:Work>
  </rdf:RDF>
 </metadata>
 <defs>
  <style type="text/css">*{stroke-linejoin: round; stroke-linecap: butt}</style>
 </defs>
 <g id="figure_1">
  <g id="patch_1">
   <path d="M 0 288 
L 288 288 
L 288 0 
L 0 0 
z
" style="fill: #ffffff"/>
  </g>
  <g id="axes_1">
   <g id="patch_2">
    <path d="M 36 256.32 
L 259.2 256.32 
L 259.2 34.56 
L 36 34.56 
z
" style="fill: #ffffff"/>
   </g>
   <g id="PathCollection_1">
    <defs>
     <path id="m09a3ca86ca" d="M 0 3 
C 0.795609 3 1.55874 2.683901 2.12132 2.12132 
C 2.683901 1.55874 3 0.795609 3 0 
C 3 -0.795609 2.683901 -1.55874 2.12132 -2.12132 
C 1.55874 -2.683901 0.795609 -3 0 -3 
C -0.795609 -3 -1.55874 -2.683901 -2.12132 -2.12132 
C -2.683901 -1.55874 -3 -0.795609 -3 0 
C -3 0.795609 -2.683901 1.55874 -2.12132 2.12132 
C -1.55874 2.683901 -0.795609 3 0 3 
z
" style="stroke: #808080"/>
    </defs>
    <g clip-path="url(#pe28dbf6c87)">
     <use xlink:href="#m09a3ca86ca" x="247.990914" y="218.499647" style="fill: #808080; stroke: #808080"/>
     <use xlink:href="#m09a3ca86ca" x="249.054545" y="192.206617" style="fill: #808080; stroke: #808080"/>
     <use xlink:href="#m09a3ca86ca" x="243.435999" y="228.148465" style="fill: #808080; stroke: #808080"/>
     <use xlink:href="#m09a3ca86ca" x="241.539134" y="158.918193" style="fill: #808080; stroke: #808080"/>
     <use xlink:href="#m09a3ca86ca" x="249.054545" y="175.661367" style="fill: #808080; stroke: #808080"/>
     <use xlink:href="#m09a3ca86ca" x="248.38598" y="218.258427" style="fill: #808080; stroke: #808080"/>
     <use xlink:href="#m09a3ca86ca" x="244.530321" y="196.789806" style="fill: #808080; stroke: #808080"/>
     <use xlink:href="#m09a3ca86ca" x="244.417286" y="191.241735" style="fill: #808080; stroke: #808080"/>
     <use xlink:href="#m09a3ca86ca" x="247.521449" y="157.22965" style="fill: #808080; stroke: #808080"/>
     <use xlink:href="#m09a3ca86ca" x="238.976798" y="163.260162" style="fill: #808080; stroke: #808080"/>
     <use xlink:href="#m09a3ca86ca" x="219.30842" y="165.913587" style="fill: #808080; stroke: #808080"/>
     <use xlink:href="#m09a3ca86ca" x="247.729344" y="202.337876" style="fill: #808080; stroke: #808080"/>
     <use xlink:href="#m09a3ca86ca" x="228.9961" y="131.901502" style="fill: #808080; stroke: #808080"/>
     <use xlink:href="#m09a3ca86ca" x="248.417932" y="239.727048" style="fill: #808080; stroke: #808080"/>
     <use xlink:href="#m09a3ca86ca" x="246.153873" y="187.623428" style="fill: #808080; stroke: #808080"/>
     <use xlink:href="#m09a3ca86ca" x="246.830318" y="169.290673" style="fill: #808080; stroke: #808080"/>
     <use xlink:href="#m09a3ca86ca" x="247.951039" y="134.313706" style="fill: #808080; stroke: #808080"/>
     <use xlink:href="#m09a3ca86ca" x="246.129488" y="171.702878" style="fill: #808080; stroke: #808080"/>
     <use xlink:href="#m09a3ca86ca" x="242.826711" y="195.824924" style="fill: #808080; stroke: #808080"/>
     <use xlink:href="#m09a3ca86ca" x="171.603099" y="52.29875" style="fill: #808080; stroke: #808080"/>
     <use xlink:href="#m09a3ca86ca" x="236.584619" y="223.565277" style="fill: #808080; stroke: #808080"/>
     <use xlink:href="#m09a3ca86ca" x="242.807239" y="113.568747" style="fill: #808080; stroke: #808080"/>
     <use xlink:href="#m09a3ca86ca" x="248.12031" y="190.035633" style="fill: #808080; stroke: #808080"/>
     <use xlink:href="#m09a3ca86ca" x="243.140382" y="78.109339" style="fill: #808080; stroke: #808080"/>
     <use xlink:href="#m09a3ca86ca" x="246.011423" y="219.464529" style="fill: #808080; stroke: #808080"/>
     <use xlink:href="#m09a3ca86ca" x="248.623975" y="196.307365" style="fill: #808080; stroke: #808080"/>
     <use xlink:href="#m09a3ca86ca" x="247.308807" y="222.117954" style="fill: #808080; stroke: #808080"/>
     <use xlink:href="#m09a3ca86ca" x="234.627585" y="174.597523" style="fill: #808080; stroke: #808080"/>
     <use xlink:href="#m09a3ca86ca" x="242.449229" y="161.330398" style="fill: #808080; stroke: #808080"/>
     <use xlink:href="#m09a3ca86ca" x="246.196542" y="167.1568" style="fill: #808080; stroke: #808080"/>
     <use xlink:href="#m09a3ca86ca" x="241.973594" y="165.189925" style="fill: #808080; stroke: #808080"/>
     <use xlink:href="#m09a3ca86ca" x="229.707707" y="184.487562" style="fill: #808080; stroke: #808080"/>
     <use xlink:href="#m09a3ca86ca" x="247.598028" y="188.82953" style="fill: #808080; stroke: #808080"/>
     <use xlink:href="#m09a3ca86ca" x="246.743011" y="244.310236" style="fill: #808080; stroke: #808080"/>
     <use xlink:href="#m09a3ca86ca" x="242.271957" y="161.089177" style="fill: #808080; stroke: #808080"/>
     <use xlink:href="#m09a3ca86ca" x="245.951064" y="228.389686" style="fill: #808080; stroke: #808080"/>
     <use xlink:href="#m09a3ca86ca" x="182.847245" y="144.927407" style="fill: #808080; stroke: #808080"/>
     <use xlink:href="#m09a3ca86ca" x="248.418871" y="189.311971" style="fill: #808080; stroke: #808080"/>
     <use xlink:href="#m09a3ca86ca" x="246.07695" y="189.553192" style="fill: #808080; stroke: #808080"/>
     <use xlink:href="#m09a3ca86ca" x="247.972318" y="174.356303" style="fill: #808080; stroke: #808080"/>
     <use xlink:href="#m09a3ca86ca" x="248.105265" y="190.276853" style="fill: #808080; stroke: #808080"/>
     <use xlink:href="#m09a3ca86ca" x="247.073872" y="142.032761" style="fill: #808080; stroke: #808080"/>
     <use xlink:href="#m09a3ca86ca" x="247.178559" y="227.666025" style="fill: #808080; stroke: #808080"/>
     <use xlink:href="#m09a3ca86ca" x="248.143981" y="190.276853" style="fill: #808080; stroke: #808080"/>
     <use xlink:href="#m09a3ca86ca" x="115.26279" y="123.619599" style="fill: #808080; stroke: #808080"/>
     <use xlink:href="#m09a3ca86ca" x="244.558547" y="196.789806" style="fill: #808080; stroke: #808080"/>
     <use xlink:href="#m09a3ca86ca" x="238.500907" y="45.303356" style="fill: #808080; stroke: #808080"/>
     <use xlink:href="#m09a3ca86ca" x="247.338486" y="154.335004" style="fill: #808080; stroke: #808080"/>
     <use xlink:href="#m09a3ca86ca" x="213.649208" y="187.382208" style="fill: #808080; stroke: #808080"/>
     <use xlink:href="#m09a3ca86ca" x="247.034763" y="173.855306" style="fill: #808080; stroke: #808080"/>
     <use xlink:href="#m09a3ca86ca" x="245.131502" y="157.47087" style="fill: #808080; stroke: #808080"/>
     <use xlink:href="#m09a3ca86ca" x="246.336449" y="151.199138" style="fill: #808080; stroke: #808080"/>
     <use xlink:href="#m09a3ca86ca" x="249.054545" y="210.780592" style="fill: #808080; stroke: #808080"/>
     <use xlink:href="#m09a3ca86ca" x="248.426904" y="210.298151" style="fill: #808080; stroke: #808080"/>
     <use xlink:href="#m09a3ca86ca" x="231.064126" y="51.575088" style="fill: #808080; stroke: #808080"/>
     <use xlink:href="#m09a3ca86ca" x="241.387072" y="120.32292" style="fill: #808080; stroke: #808080"/>
     <use xlink:href="#m09a3ca86ca" x="231.543166" y="206.679844" style="fill: #808080; stroke: #808080"/>
     <use xlink:href="#m09a3ca86ca" x="247.830007" y="206.679844" style="fill: #808080; stroke: #808080"/>
     <use xlink:href="#m09a3ca86ca" x="242.750001" y="186.176105" style="fill: #808080; stroke: #808080"/>
     <use xlink:href="#m09a3ca86ca" x="247.749257" y="195.583703" style="fill: #808080; stroke: #808080"/>
     <use xlink:href="#m09a3ca86ca" x="221.904515" y="147.822052" style="fill: #808080; stroke: #808080"/>
     <use xlink:href="#m09a3ca86ca" x="246.621399" y="225.012599" style="fill: #808080; stroke: #808080"/>
     <use xlink:href="#m09a3ca86ca" x="244.088069" y="239.485827" style="fill: #808080; stroke: #808080"/>
     <use xlink:href="#m09a3ca86ca" x="247.786326" y="149.028154" style="fill: #808080; stroke: #808080"/>
     <use xlink:href="#m09a3ca86ca" x="240.33764" y="137.449572" style="fill: #808080; stroke: #808080"/>
     <use xlink:href="#m09a3ca86ca" x="244.952505" y="175.321185" style="fill: #808080; stroke: #808080"/>
     <use xlink:href="#m09a3ca86ca" x="236.57612" y="44.64" style="fill: #808080; stroke: #808080"/>
     <use xlink:href="#m09a3ca86ca" x="245.880196" y="199.925672" style="fill: #808080; stroke: #808080"/>
     <use xlink:href="#m09a3ca86ca" x="244.674055" y="114.774849" style="fill: #808080; stroke: #808080"/>
     <use xlink:href="#m09a3ca86ca" x="245.271334" y="141.3091" style="fill: #808080; stroke: #808080"/>
     <use xlink:href="#m09a3ca86ca" x="246.456867" y="137.208352" style="fill: #808080; stroke: #808080"/>
     <use xlink:href="#m09a3ca86ca" x="248.514677" y="205.956183" style="fill: #808080; stroke: #808080"/>
     <use xlink:href="#m09a3ca86ca" x="236.51244" y="147.580832" style="fill: #808080; stroke: #808080"/>
     <use xlink:href="#m09a3ca86ca" x="239.937159" y="192.206617" style="fill: #808080; stroke: #808080"/>
     <use xlink:href="#m09a3ca86ca" x="248.02055" y="166.878468" style="fill: #808080; stroke: #808080"/>
     <use xlink:href="#m09a3ca86ca" x="194.205298" y="131.17784" style="fill: #808080; stroke: #808080"/>
     <use xlink:href="#m09a3ca86ca" x="246.852206" y="201.614215" style="fill: #808080; stroke: #808080"/>
     <use xlink:href="#m09a3ca86ca" x="234.636112" y="92.341346" style="fill: #808080; stroke: #808080"/>
     <use xlink:href="#m09a3ca86ca" x="243.70075" y="94.029889" style="fill: #808080; stroke: #808080"/>
     <use xlink:href="#m09a3ca86ca" x="244.6628" y="171.461657" style="fill: #808080; stroke: #808080"/>
     <use xlink:href="#m09a3ca86ca" x="244.60971" y="157.953311" style="fill: #808080; stroke: #808080"/>
     <use xlink:href="#m09a3ca86ca" x="244.151846" y="139.620556" style="fill: #808080; stroke: #808080"/>
     <use xlink:href="#m09a3ca86ca" x="237.295028" y="159.641855" style="fill: #808080; stroke: #808080"/>
     <use xlink:href="#m09a3ca86ca" x="248.746578" y="244.792677" style="fill: #808080; stroke: #808080"/>
     <use xlink:href="#m09a3ca86ca" x="240.442266" y="118.634376" style="fill: #808080; stroke: #808080"/>
     <use xlink:href="#m09a3ca86ca" x="246.169119" y="189.070751" style="fill: #808080; stroke: #808080"/>
     <use xlink:href="#m09a3ca86ca" x="247.34699" y="164.225043" style="fill: #808080; stroke: #808080"/>
     <use xlink:href="#m09a3ca86ca" x="246.652594" y="132.383943" style="fill: #808080; stroke: #808080"/>
     <use xlink:href="#m09a3ca86ca" x="217.184416" y="71.930384" style="fill: #808080; stroke: #808080"/>
     <use xlink:href="#m09a3ca86ca" x="245.624461" y="131.660281" style="fill: #808080; stroke: #808080"/>
     <use xlink:href="#m09a3ca86ca" x="246.268088" y="227.907245" style="fill: #808080; stroke: #808080"/>
     <use xlink:href="#m09a3ca86ca" x="247.343526" y="168.808232" style="fill: #808080; stroke: #808080"/>
     <use xlink:href="#m09a3ca86ca" x="247.235887" y="185.452444" style="fill: #808080; stroke: #808080"/>
     <use xlink:href="#m09a3ca86ca" x="188.519608" y="216.569883" style="fill: #808080; stroke: #808080"/>
     <use xlink:href="#m09a3ca86ca" x="248.371917" y="212.951576" style="fill: #808080; stroke: #808080"/>
     <use xlink:href="#m09a3ca86ca" x="235.987127" y="123.959782" style="fill: #808080; stroke: #808080"/>
     <use xlink:href="#m09a3ca86ca" x="248.698819" y="229.595788" style="fill: #808080; stroke: #808080"/>
     <use xlink:href="#m09a3ca86ca" x="247.517124" y="159.400634" style="fill: #808080; stroke: #808080"/>
     <use xlink:href="#m09a3ca86ca" x="247.856681" y="158.918193" style="fill: #808080; stroke: #808080"/>
     <use xlink:href="#m09a3ca86ca" x="46.145455" y="96.964738" style="fill: #808080; stroke: #808080"/>
     <use xlink:href="#m09a3ca86ca" x="244.325946" y="185.693664" style="fill: #808080; stroke: #808080"/>
     <use xlink:href="#m09a3ca86ca" x="238.995455" y="154.093784" style="fill: #808080; stroke: #808080"/>
     <use xlink:href="#m09a3ca86ca" x="216.160566" y="141.791541" style="fill: #808080; stroke: #808080"/>
     <use xlink:href="#m09a3ca86ca" x="248.606636" y="246.24" style="fill: #808080; stroke: #808080"/>
     <use xlink:href="#m09a3ca86ca" x="82.885664" y="94.27111" style="fill: #808080; stroke: #808080"/>
     <use xlink:href="#m09a3ca86ca" x="215.596927" y="183.040239" style="fill: #808080; stroke: #808080"/>
     <use xlink:href="#m09a3ca86ca" x="247.980106" y="171.220437" style="fill: #808080; stroke: #808080"/>
     <use xlink:href="#m09a3ca86ca" x="247.862544" y="170.737996" style="fill: #808080; stroke: #808080"/>
     <use xlink:href="#m09a3ca86ca" x="224.376981" y="113.550191" style="fill: #808080; stroke: #808080"/>
     <use xlink:href="#m09a3ca86ca" x="235.191783" y="184.728783" style="fill: #808080; stroke: #808080"/>
     <use xlink:href="#m09a3ca86ca" x="245.462347" y="218.017206" style="fill: #808080; stroke: #808080"/>
     <use xlink:href="#m09a3ca86ca" x="246.682435" y="125.62977" style="fill: #808080; stroke: #808080"/>
     <use xlink:href="#m09a3ca86ca" x="248.052562" y="183.763901" style="fill: #808080; stroke: #808080"/>
     <use xlink:href="#m09a3ca86ca" x="245.853556" y="203.785199" style="fill: #808080; stroke: #808080"/>
     <use xlink:href="#m09a3ca86ca" x="247.504888" y="141.3091" style="fill: #808080; stroke: #808080"/>
     <use xlink:href="#m09a3ca86ca" x="248.429342" y="197.031026" style="fill: #808080; stroke: #808080"/>
     <use xlink:href="#m09a3ca86ca" x="244.511972" y="68.762046" style="fill: #808080; stroke: #808080"/>
     <use xlink:href="#m09a3ca86ca" x="247.948973" y="172.185319" style="fill: #808080; stroke: #808080"/>
     <use xlink:href="#m09a3ca86ca" x="238.639454" y="209.092049" style="fill: #808080; stroke: #808080"/>
     <use xlink:href="#m09a3ca86ca" x="244.284998" y="226.459922" style="fill: #808080; stroke: #808080"/>
     <use xlink:href="#m09a3ca86ca" x="244.990449" y="196.789806" style="fill: #808080; stroke: #808080"/>
     <use xlink:href="#m09a3ca86ca" x="238.597261" y="109.467999" style="fill: #808080; stroke: #808080"/>
     <use xlink:href="#m09a3ca86ca" x="171.907555" y="103.437487" style="fill: #808080; stroke: #808080"/>
     <use xlink:href="#m09a3ca86ca" x="248.534172" y="223.806497" style="fill: #808080; stroke: #808080"/>
     <use xlink:href="#m09a3ca86ca" x="214.481858" y="234.661418" style="fill: #808080; stroke: #808080"/>
     <use xlink:href="#m09a3ca86ca" x="246.830449" y="162.054059" style="fill: #808080; stroke: #808080"/>
     <use xlink:href="#m09a3ca86ca" x="247.920574" y="200.890553" style="fill: #808080; stroke: #808080"/>
     <use xlink:href="#m09a3ca86ca" x="191.551052" y="144.444966" style="fill: #808080; stroke: #808080"/>
     <use xlink:href="#m09a3ca86ca" x="247.739425" y="177.492169" style="fill: #808080; stroke: #808080"/>
     <use xlink:href="#m09a3ca86ca" x="245.820311" y="141.3091" style="fill: #808080; stroke: #808080"/>
     <use xlink:href="#m09a3ca86ca" x="237.388262" y="149.993036" style="fill: #808080; stroke: #808080"/>
     <use xlink:href="#m09a3ca86ca" x="248.310603" y="211.986695" style="fill: #808080; stroke: #808080"/>
     <use xlink:href="#m09a3ca86ca" x="209.886372" y="212.227915" style="fill: #808080; stroke: #808080"/>
     <use xlink:href="#m09a3ca86ca" x="166.630251" y="193.65394" style="fill: #808080; stroke: #808080"/>
     <use xlink:href="#m09a3ca86ca" x="240.881749" y="174.115082" style="fill: #808080; stroke: #808080"/>
     <use xlink:href="#m09a3ca86ca" x="211.974717" y="137.932013" style="fill: #808080; stroke: #808080"/>
     <use xlink:href="#m09a3ca86ca" x="240.33452" y="111.156542" style="fill: #808080; stroke: #808080"/>
     <use xlink:href="#m09a3ca86ca" x="245.829477" y="218.982088" style="fill: #808080; stroke: #808080"/>
     <use xlink:href="#m09a3ca86ca" x="249.054545" y="206.679844" style="fill: #808080; stroke: #808080"/>
     <use xlink:href="#m09a3ca86ca" x="244.741103" y="217.052324" style="fill: #808080; stroke: #808080"/>
     <use xlink:href="#m09a3ca86ca" x="248.402004" y="225.012599" style="fill: #808080; stroke: #808080"/>
     <use xlink:href="#m09a3ca86ca" x="247.464412" y="97.648196" style="fill: #808080; stroke: #808080"/>
     <use xlink:href="#m09a3ca86ca" x="249.054545" y="188.58831" style="fill: #808080; stroke: #808080"/>
     <use xlink:href="#m09a3ca86ca" x="171.509469" y="141.698763" style="fill: #808080; stroke: #808080"/>
     <use xlink:href="#m09a3ca86ca" x="247.018866" y="184.005121" style="fill: #808080; stroke: #808080"/>
     <use xlink:href="#m09a3ca86ca" x="237.090668" y="108.020676" style="fill: #808080; stroke: #808080"/>
     <use xlink:href="#m09a3ca86ca" x="247.810506" y="194.377601" style="fill: #808080; stroke: #808080"/>
     <use xlink:href="#m09a3ca86ca" x="70.275561" y="116.50725" style="fill: #808080; stroke: #808080"/>
     <use xlink:href="#m09a3ca86ca" x="247.36295" y="141.791541" style="fill: #808080; stroke: #808080"/>
     <use xlink:href="#m09a3ca86ca" x="246.911378" y="184.487562" style="fill: #808080; stroke: #808080"/>
     <use xlink:href="#m09a3ca86ca" x="245.713276" y="195.824924" style="fill: #808080; stroke: #808080"/>
     <use xlink:href="#m09a3ca86ca" x="247.809529" y="245.99878" style="fill: #808080; stroke: #808080"/>
     <use xlink:href="#m09a3ca86ca" x="213.417876" y="179.421932" style="fill: #808080; stroke: #808080"/>
    </g>
   </g>
   <g id="matplotlib.axis_1">
    <g id="xtick_1">
     <g id="line2d_1">
      <defs>
       <path id="mfc86ad7182" d="M 0 0 
L 0 3.5 
" style="stroke: #000000; stroke-width: 0.8"/>
      </defs>
      <g>
       <use xlink:href="#mfc86ad7182" x="44.235363" y="256.32" style="stroke: #000000; stroke-width: 0.8"/>
      </g>
     </g>
     <g id="text_1">
      <!-- 0.25 -->
      <g transform="translate(26.422863 275.4775) scale(0.16 -0.16)">
       <defs>
        <path id="DejaVuSans-30" d="M 2034 4250 
Q 1547 4250 1301 3770 
Q 1056 3291 1056 2328 
Q 1056 1369 1301 889 
Q 1547 409 2034 409 
Q 2525 409 2770 889 
Q 3016 1369 3016 2328 
Q 3016 3291 2770 3770 
Q 2525 4250 2034 4250 
z
M 2034 4750 
Q 2819 4750 3233 4129 
Q 3647 3509 3647 2328 
Q 3647 1150 3233 529 
Q 2819 -91 2034 -91 
Q 1250 -91 836 529 
Q 422 1150 422 2328 
Q 422 3509 836 4129 
Q 1250 4750 2034 4750 
z
" transform="scale(0.015625)"/>
        <path id="DejaVuSans-2e" d="M 684 794 
L 1344 794 
L 1344 0 
L 684 0 
L 684 794 
z
" transform="scale(0.015625)"/>
        <path id="DejaVuSans-32" d="M 1228 531 
L 3431 531 
L 3431 0 
L 469 0 
L 469 531 
Q 828 903 1448 1529 
Q 2069 2156 2228 2338 
Q 2531 2678 2651 2914 
Q 2772 3150 2772 3378 
Q 2772 3750 2511 3984 
Q 2250 4219 1831 4219 
Q 1534 4219 1204 4116 
Q 875 4013 500 3803 
L 500 4441 
Q 881 4594 1212 4672 
Q 1544 4750 1819 4750 
Q 2544 4750 2975 4387 
Q 3406 4025 3406 3419 
Q 3406 3131 3298 2873 
Q 3191 2616 2906 2266 
Q 2828 2175 2409 1742 
Q 1991 1309 1228 531 
z
" transform="scale(0.015625)"/>
        <path id="DejaVuSans-35" d="M 691 4666 
L 3169 4666 
L 3169 4134 
L 1269 4134 
L 1269 2991 
Q 1406 3038 1543 3061 
Q 1681 3084 1819 3084 
Q 2600 3084 3056 2656 
Q 3513 2228 3513 1497 
Q 3513 744 3044 326 
Q 2575 -91 1722 -91 
Q 1428 -91 1123 -41 
Q 819 9 494 109 
L 494 744 
Q 775 591 1075 516 
Q 1375 441 1709 441 
Q 2250 441 2565 725 
Q 2881 1009 2881 1497 
Q 2881 1984 2565 2268 
Q 2250 2553 1709 2553 
Q 1456 2553 1204 2497 
Q 953 2441 691 2322 
L 691 4666 
z
" transform="scale(0.015625)"/>
       </defs>
       <use xlink:href="#DejaVuSans-30"/>
       <use xlink:href="#DejaVuSans-2e" x="63.623047"/>
       <use xlink:href="#DejaVuSans-32" x="95.410156"/>
       <use xlink:href="#DejaVuSans-35" x="159.033203"/>
      </g>
     </g>
    </g>
    <g id="xtick_2">
     <g id="line2d_2">
      <g>
       <use xlink:href="#mfc86ad7182" x="112.508424" y="256.32" style="stroke: #000000; stroke-width: 0.8"/>
      </g>
     </g>
     <g id="text_2">
      <!-- 0.50 -->
      <g transform="translate(94.695924 275.4775) scale(0.16 -0.16)">
       <use xlink:href="#DejaVuSans-30"/>
       <use xlink:href="#DejaVuSans-2e" x="63.623047"/>
       <use xlink:href="#DejaVuSans-35" x="95.410156"/>
       <use xlink:href="#DejaVuSans-30" x="159.033203"/>
      </g>
     </g>
    </g>
    <g id="xtick_3">
     <g id="line2d_3">
      <g>
       <use xlink:href="#mfc86ad7182" x="180.781485" y="256.32" style="stroke: #000000; stroke-width: 0.8"/>
      </g>
     </g>
     <g id="text_3">
      <!-- 0.75 -->
      <g transform="translate(162.968985 275.4775) scale(0.16 -0.16)">
       <defs>
        <path id="DejaVuSans-37" d="M 525 4666 
L 3525 4666 
L 3525 4397 
L 1831 0 
L 1172 0 
L 2766 4134 
L 525 4134 
L 525 4666 
z
" transform="scale(0.015625)"/>
       </defs>
       <use xlink:href="#DejaVuSans-30"/>
       <use xlink:href="#DejaVuSans-2e" x="63.623047"/>
       <use xlink:href="#DejaVuSans-37" x="95.410156"/>
       <use xlink:href="#DejaVuSans-35" x="159.033203"/>
      </g>
     </g>
    </g>
    <g id="xtick_4">
     <g id="line2d_4">
      <g>
       <use xlink:href="#mfc86ad7182" x="249.054545" y="256.32" style="stroke: #000000; stroke-width: 0.8"/>
      </g>
     </g>
     <g id="text_4">
      <!-- 1.00 -->
      <g transform="translate(231.242045 275.4775) scale(0.16 -0.16)">
       <defs>
        <path id="DejaVuSans-31" d="M 794 531 
L 1825 531 
L 1825 4091 
L 703 3866 
L 703 4441 
L 1819 4666 
L 2450 4666 
L 2450 531 
L 3481 531 
L 3481 0 
L 794 0 
L 794 531 
z
" transform="scale(0.015625)"/>
       </defs>
       <use xlink:href="#DejaVuSans-31"/>
       <use xlink:href="#DejaVuSans-2e" x="63.623047"/>
       <use xlink:href="#DejaVuSans-30" x="95.410156"/>
       <use xlink:href="#DejaVuSans-30" x="159.033203"/>
      </g>
     </g>
    </g>
    <g id="text_5">
     <!-- $\gamma$ -->
     <g transform="translate(142.8 294.93) scale(0.16 -0.16)">
      <defs>
       <path id="DejaVuSans-Oblique-3b3" d="M 1491 2950 
L 1838 788 
L 3456 3500 
L 4066 3500 
L 1972 0 
L 1713 -1331 
L 1138 -1331 
L 1397 0 
L 988 2613 
Q 925 3006 628 3006 
L 475 3006 
L 569 3500 
L 788 3500 
Q 1403 3500 1491 2950 
z
" transform="scale(0.015625)"/>
      </defs>
      <use xlink:href="#DejaVuSans-Oblique-3b3" transform="translate(0 0.3125)"/>
     </g>
    </g>
   </g>
   <g id="matplotlib.axis_2">
    <g id="ytick_1">
     <g id="line2d_5">
      <defs>
       <path id="m43d6761951" d="M 0 0 
L -3.5 0 
" style="stroke: #000000; stroke-width: 0.8"/>
      </defs>
      <g>
       <use xlink:href="#m43d6761951" x="36" y="228.872127" style="stroke: #000000; stroke-width: 0.8"/>
      </g>
     </g>
     <g id="text_6">
      <!-- 5.0 -->
      <g transform="translate(3.555 234.950877) scale(0.16 -0.16)">
       <use xlink:href="#DejaVuSans-35"/>
       <use xlink:href="#DejaVuSans-2e" x="63.623047"/>
       <use xlink:href="#DejaVuSans-30" x="95.410156"/>
      </g>
     </g>
    </g>
    <g id="ytick_2">
     <g id="line2d_6">
      <g>
       <use xlink:href="#m43d6761951" x="36" y="186.658546" style="stroke: #000000; stroke-width: 0.8"/>
      </g>
     </g>
     <g id="text_7">
      <!-- 7.5 -->
      <g transform="translate(3.555 192.737296) scale(0.16 -0.16)">
       <use xlink:href="#DejaVuSans-37"/>
       <use xlink:href="#DejaVuSans-2e" x="63.623047"/>
       <use xlink:href="#DejaVuSans-35" x="95.410156"/>
      </g>
     </g>
    </g>
    <g id="ytick_3">
     <g id="line2d_7">
      <g>
       <use xlink:href="#m43d6761951" x="36" y="144.444966" style="stroke: #000000; stroke-width: 0.8"/>
      </g>
     </g>
     <g id="text_8">
      <!-- 10.0 -->
      <g transform="translate(-6.625 150.523716) scale(0.16 -0.16)">
       <use xlink:href="#DejaVuSans-31"/>
       <use xlink:href="#DejaVuSans-30" x="63.623047"/>
       <use xlink:href="#DejaVuSans-2e" x="127.246094"/>
       <use xlink:href="#DejaVuSans-30" x="159.033203"/>
      </g>
     </g>
    </g>
    <g id="ytick_4">
     <g id="line2d_8">
      <g>
       <use xlink:href="#m43d6761951" x="36" y="102.231385" style="stroke: #000000; stroke-width: 0.8"/>
      </g>
     </g>
     <g id="text_9">
      <!-- 12.5 -->
      <g transform="translate(-6.625 108.310135) scale(0.16 -0.16)">
       <use xlink:href="#DejaVuSans-31"/>
       <use xlink:href="#DejaVuSans-32" x="63.623047"/>
       <use xlink:href="#DejaVuSans-2e" x="127.246094"/>
       <use xlink:href="#DejaVuSans-35" x="159.033203"/>
      </g>
     </g>
    </g>
    <g id="ytick_5">
     <g id="line2d_9">
      <g>
       <use xlink:href="#m43d6761951" x="36" y="60.017804" style="stroke: #000000; stroke-width: 0.8"/>
      </g>
     </g>
     <g id="text_10">
      <!-- 15.0 -->
      <g transform="translate(-6.625 66.096554) scale(0.16 -0.16)">
       <use xlink:href="#DejaVuSans-31"/>
       <use xlink:href="#DejaVuSans-35" x="63.623047"/>
       <use xlink:href="#DejaVuSans-2e" x="127.246094"/>
       <use xlink:href="#DejaVuSans-30" x="159.033203"/>
      </g>
     </g>
    </g>
    <g id="text_11">
     <!-- MUCW -->
     <g transform="translate(-13.9525 171.69375) rotate(-90) scale(0.16 -0.16)">
      <defs>
       <path id="DejaVuSans-4d" d="M 628 4666 
L 1569 4666 
L 2759 1491 
L 3956 4666 
L 4897 4666 
L 4897 0 
L 4281 0 
L 4281 4097 
L 3078 897 
L 2444 897 
L 1241 4097 
L 1241 0 
L 628 0 
L 628 4666 
z
" transform="scale(0.015625)"/>
       <path id="DejaVuSans-55" d="M 556 4666 
L 1191 4666 
L 1191 1831 
Q 1191 1081 1462 751 
Q 1734 422 2344 422 
Q 2950 422 3222 751 
Q 3494 1081 3494 1831 
L 3494 4666 
L 4128 4666 
L 4128 1753 
Q 4128 841 3676 375 
Q 3225 -91 2344 -91 
Q 1459 -91 1007 375 
Q 556 841 556 1753 
L 556 4666 
z
" transform="scale(0.015625)"/>
       <path id="DejaVuSans-43" d="M 4122 4306 
L 4122 3641 
Q 3803 3938 3442 4084 
Q 3081 4231 2675 4231 
Q 1875 4231 1450 3742 
Q 1025 3253 1025 2328 
Q 1025 1406 1450 917 
Q 1875 428 2675 428 
Q 3081 428 3442 575 
Q 3803 722 4122 1019 
L 4122 359 
Q 3791 134 3420 21 
Q 3050 -91 2638 -91 
Q 1578 -91 968 557 
Q 359 1206 359 2328 
Q 359 3453 968 4101 
Q 1578 4750 2638 4750 
Q 3056 4750 3426 4639 
Q 3797 4528 4122 4306 
z
" transform="scale(0.015625)"/>
       <path id="DejaVuSans-57" d="M 213 4666 
L 850 4666 
L 1831 722 
L 2809 4666 
L 3519 4666 
L 4500 722 
L 5478 4666 
L 6119 4666 
L 4947 0 
L 4153 0 
L 3169 4050 
L 2175 0 
L 1381 0 
L 213 4666 
z
" transform="scale(0.015625)"/>
      </defs>
      <use xlink:href="#DejaVuSans-4d"/>
      <use xlink:href="#DejaVuSans-55" x="86.279297"/>
      <use xlink:href="#DejaVuSans-43" x="159.472656"/>
      <use xlink:href="#DejaVuSans-57" x="229.296875"/>
     </g>
    </g>
   </g>
   <g id="patch_3">
    <path d="M 36 256.32 
L 36 34.56 
" style="fill: none; stroke: #000000; stroke-linejoin: miter; stroke-linecap: square"/>
   </g>
   <g id="patch_4">
    <path d="M 36 256.32 
L 259.2 256.32 
" style="fill: none; stroke: #000000; stroke-linejoin: miter; stroke-linecap: square"/>
   </g>
  </g>
 </g>
 <defs>
  <clipPath id="pe28dbf6c87">
   <rect x="36" y="34.56" width="223.2" height="221.76"/>
  </clipPath>
 </defs>
</svg>
