<?xml version="1.0" encoding="utf-8" standalone="no"?>
<!DOCTYPE svg PUBLIC "-//W3C//DTD SVG 1.1//EN"
  "http://www.w3.org/Graphics/SVG/1.1/DTD/svg11.dtd">
<svg xmlns:xlink="http://www.w3.org/1999/xlink" width="288pt" height="288pt" viewBox="0 0 288 288" xmlns="http://www.w3.org/2000/svg" version="1.1">
 <metadata>
  <rdf:RDF xmlns:dc="http://purl.org/dc/elements/1.1/" xmlns:cc="http://creativecommons.org/ns#" xmlns:rdf="http://www.w3.org/1999/02/22-rdf-syntax-ns#">
   <cc:Work>
    <dc:type rdf:resource="http://purl.org/dc/dcmitype/StillImage"/>
    <dc:date>2026-01-26T14:31:53.072655</dc:date>
    <dc:format>image/svg+xml</dc:format>
    <dc:creator>
     <cc:Agent>
      <dc:title>Matplotlib v3.10.8, https://matplotlib.org/</dc:title>
     </cc:Agent>
    </dc:creator>
   </cc:Work>
  </rdf:RDF>
 </metadata>
 <defs>
  <style type="text/css">*{stroke-linejoin: round; stroke-linecap: butt}</style>
 </defs>
 <g id="figure_1">
  <g id="patch_1">
   <path d="M 0 288 
L 288 288 
L 288 0 
L 0 0 
z
" style="fill: #ffffff"/>
  </g>
  <g id="axes_1">
   <g id="patch_2">
    <path d="M 36 256.32 
L 259.2 256.32 
L 259.2 34.56 
L 36 34.56 
z
" style="fill: #ffffff"/>
   </g>
   <g id="matplotlib.axis_1">
    <g id="xtick_1">
     <g id="line2d_1">
      <defs>
       <path id="m2e36e10118" d="M 0 0 
L 0 3.5 
" style="stroke: #000000; stroke-width: 0.8"/>
      </defs>
      <g>
       <use xlink:href="#m2e36e10118" x="46.145455" y="256.32" style="stroke: #000000; stroke-width: 0.8"/>
      </g>
     </g>
     <g id="text_1">
      <!-- 0 -->
      <g transform="translate(41.055455 275.4775) scale(0.16 -0.16)">
       <defs>
        <path id="DejaVuSans-30" d="M 2034 4250 
Q 1547 4250 1301 3770 
Q 1056 3291 1056 2328 
Q 1056 1369 1301 889 
Q 1547 409 2034 409 
Q 2525 409 2770 889 
Q 3016 1369 3016 2328 
Q 3016 3291 2770 3770 
Q 2525 4250 2034 4250 
z
M 2034 4750 
Q 2819 4750 3233 4129 
Q 3647 3509 3647 2328 
Q 3647 1150 3233 529 
Q 2819 -91 2034 -91 
Q 1250 -91 836 529 
Q 422 1150 422 2328 
Q 422 3509 836 4129 
Q 1250 4750 2034 4750 
z
" transform="scale(0.015625)"/>
       </defs>
       <use xlink:href="#DejaVuSans-30"/>
      </g>
     </g>
    </g>
    <g id="xtick_2">
     <g id="line2d_2">
      <g>
       <use xlink:href="#m2e36e10118" x="134.918182" y="256.32" style="stroke: #000000; stroke-width: 0.8"/>
      </g>
     </g>
     <g id="text_2">
      <!-- 7 -->
      <g transform="translate(129.828182 275.4775) scale(0.16 -0.16)">
       <defs>
        <path id="DejaVuSans-37" d="M 525 4666 
L 3525 4666 
L 3525 4397 
L 1831 0 
L 1172 0 
L 2766 4134 
L 525 4134 
L 525 4666 
z
" transform="scale(0.015625)"/>
       </defs>
       <use xlink:href="#DejaVuSans-37"/>
      </g>
     </g>
    </g>
    <g id="xtick_3">
     <g id="line2d_3">
      <g>
       <use xlink:href="#m2e36e10118" x="236.372727" y="256.32" style="stroke: #000000; stroke-width: 0.8"/>
      </g>
     </g>
     <g id="text_3">
      <!-- 15 -->
      <g transform="translate(226.192727 275.4775) scale(0.16 -0.16)">
       <defs>
        <path id="DejaVuSans-31" d="M 794 531 
L 1825 531 
L 1825 4091 
L 703 3866 
L 703 4441 
L 1819 4666 
L 2450 4666 
L 2450 531 
L 3481 531 
L 3481 0 
L 794 0 
L 794 531 
z
" transform="scale(0.015625)"/>
        <path id="DejaVuSans-35" d="M 691 4666 
L 3169 4666 
L 3169 4134 
L 1269 4134 
L 1269 2991 
Q 1406 3038 1543 3061 
Q 1681 3084 1819 3084 
Q 2600 3084 3056 2656 
Q 3513 2228 3513 1497 
Q 3513 744 3044 326 
Q 2575 -91 1722 -91 
Q 1428 -91 1123 -41 
Q 819 9 494 109 
L 494 744 
Q 775 591 1075 516 
Q 1375 441 1709 441 
Q 2250 441 2565 725 
Q 2881 1009 2881 1497 
Q 2881 1984 2565 2268 
Q 2250 2553 1709 2553 
Q 1456 2553 1204 2497 
Q 953 2441 691 2322 
L 691 4666 
z
" transform="scale(0.015625)"/>
       </defs>
       <use xlink:href="#DejaVuSans-31"/>
       <use xlink:href="#DejaVuSans-35" transform="translate(63.623047 0)"/>
      </g>
     </g>
    </g>
    <g id="text_4">
     <!-- time in weeks -->
     <g transform="translate(91.96125 294.9625) scale(0.16 -0.16)">
      <defs>
       <path id="DejaVuSans-74" d="M 1172 4494 
L 1172 3500 
L 2356 3500 
L 2356 3053 
L 1172 3053 
L 1172 1153 
Q 1172 725 1289 603 
Q 1406 481 1766 481 
L 2356 481 
L 2356 0 
L 1766 0 
Q 1100 0 847 248 
Q 594 497 594 1153 
L 594 3053 
L 172 3053 
L 172 3500 
L 594 3500 
L 594 4494 
L 1172 4494 
z
" transform="scale(0.015625)"/>
       <path id="DejaVuSans-69" d="M 603 3500 
L 1178 3500 
L 1178 0 
L 603 0 
L 603 3500 
z
M 603 4863 
L 1178 4863 
L 1178 4134 
L 603 4134 
L 603 4863 
z
" transform="scale(0.015625)"/>
       <path id="DejaVuSans-6d" d="M 3328 2828 
Q 3544 3216 3844 3400 
Q 4144 3584 4550 3584 
Q 5097 3584 5394 3201 
Q 5691 2819 5691 2113 
L 5691 0 
L 5113 0 
L 5113 2094 
Q 5113 2597 4934 2840 
Q 4756 3084 4391 3084 
Q 3944 3084 3684 2787 
Q 3425 2491 3425 1978 
L 3425 0 
L 2847 0 
L 2847 2094 
Q 2847 2600 2669 2842 
Q 2491 3084 2119 3084 
Q 1678 3084 1418 2786 
Q 1159 2488 1159 1978 
L 1159 0 
L 581 0 
L 581 3500 
L 1159 3500 
L 1159 2956 
Q 1356 3278 1631 3431 
Q 1906 3584 2284 3584 
Q 2666 3584 2933 3390 
Q 3200 3197 3328 2828 
z
" transform="scale(0.015625)"/>
       <path id="DejaVuSans-65" d="M 3597 1894 
L 3597 1613 
L 953 1613 
Q 991 1019 1311 708 
Q 1631 397 2203 397 
Q 2534 397 2845 478 
Q 3156 559 3463 722 
L 3463 178 
Q 3153 47 2828 -22 
Q 2503 -91 2169 -91 
Q 1331 -91 842 396 
Q 353 884 353 1716 
Q 353 2575 817 3079 
Q 1281 3584 2069 3584 
Q 2775 3584 3186 3129 
Q 3597 2675 3597 1894 
z
M 3022 2063 
Q 3016 2534 2758 2815 
Q 2500 3097 2075 3097 
Q 1594 3097 1305 2825 
Q 1016 2553 972 2059 
L 3022 2063 
z
" transform="scale(0.015625)"/>
       <path id="DejaVuSans-20" transform="scale(0.015625)"/>
       <path id="DejaVuSans-6e" d="M 3513 2113 
L 3513 0 
L 2938 0 
L 2938 2094 
Q 2938 2591 2744 2837 
Q 2550 3084 2163 3084 
Q 1697 3084 1428 2787 
Q 1159 2491 1159 1978 
L 1159 0 
L 581 0 
L 581 3500 
L 1159 3500 
L 1159 2956 
Q 1366 3272 1645 3428 
Q 1925 3584 2291 3584 
Q 2894 3584 3203 3211 
Q 3513 2838 3513 2113 
z
" transform="scale(0.015625)"/>
       <path id="DejaVuSans-77" d="M 269 3500 
L 844 3500 
L 1563 769 
L 2278 3500 
L 2956 3500 
L 3675 769 
L 4391 3500 
L 4966 3500 
L 4050 0 
L 3372 0 
L 2619 2869 
L 1863 0 
L 1184 0 
L 269 3500 
z
" transform="scale(0.015625)"/>
       <path id="DejaVuSans-6b" d="M 581 4863 
L 1159 4863 
L 1159 1991 
L 2875 3500 
L 3609 3500 
L 1753 1863 
L 3688 0 
L 2938 0 
L 1159 1709 
L 1159 0 
L 581 0 
L 581 4863 
z
" transform="scale(0.015625)"/>
       <path id="DejaVuSans-73" d="M 2834 3397 
L 2834 2853 
Q 2591 2978 2328 3040 
Q 2066 3103 1784 3103 
Q 1356 3103 1142 2972 
Q 928 2841 928 2578 
Q 928 2378 1081 2264 
Q 1234 2150 1697 2047 
L 1894 2003 
Q 2506 1872 2764 1633 
Q 3022 1394 3022 966 
Q 3022 478 2636 193 
Q 2250 -91 1575 -91 
Q 1294 -91 989 -36 
Q 684 19 347 128 
L 347 722 
Q 666 556 975 473 
Q 1284 391 1588 391 
Q 1994 391 2212 530 
Q 2431 669 2431 922 
Q 2431 1156 2273 1281 
Q 2116 1406 1581 1522 
L 1381 1569 
Q 847 1681 609 1914 
Q 372 2147 372 2553 
Q 372 3047 722 3315 
Q 1072 3584 1716 3584 
Q 2034 3584 2315 3537 
Q 2597 3491 2834 3397 
z
" transform="scale(0.015625)"/>
      </defs>
      <use xlink:href="#DejaVuSans-74"/>
      <use xlink:href="#DejaVuSans-69" transform="translate(39.208984 0)"/>
      <use xlink:href="#DejaVuSans-6d" transform="translate(66.992188 0)"/>
      <use xlink:href="#DejaVuSans-65" transform="translate(164.404297 0)"/>
      <use xlink:href="#DejaVuSans-20" transform="translate(225.927734 0)"/>
      <use xlink:href="#DejaVuSans-69" transform="translate(257.714844 0)"/>
      <use xlink:href="#DejaVuSans-6e" transform="translate(285.498047 0)"/>
      <use xlink:href="#DejaVuSans-20" transform="translate(348.876953 0)"/>
      <use xlink:href="#DejaVuSans-77" transform="translate(380.664062 0)"/>
      <use xlink:href="#DejaVuSans-65" transform="translate(462.451172 0)"/>
      <use xlink:href="#DejaVuSans-65" transform="translate(523.974609 0)"/>
      <use xlink:href="#DejaVuSans-6b" transform="translate(585.498047 0)"/>
      <use xlink:href="#DejaVuSans-73" transform="translate(643.408203 0)"/>
     </g>
    </g>
   </g>
   <g id="matplotlib.axis_2">
    <g id="ytick_1">
     <g id="line2d_4">
      <defs>
       <path id="m610b4ae18f" d="M 0 0 
L -3.5 0 
" style="stroke: #000000; stroke-width: 0.8"/>
      </defs>
      <g>
       <use xlink:href="#m610b4ae18f" x="36" y="247.08" style="stroke: #000000; stroke-width: 0.8"/>
      </g>
     </g>
     <g id="text_5">
      <!-- 0 -->
      <g transform="translate(18.82 253.15875) scale(0.16 -0.16)">
       <use xlink:href="#DejaVuSans-30"/>
      </g>
     </g>
    </g>
    <g id="ytick_2">
     <g id="line2d_5">
      <g>
       <use xlink:href="#m610b4ae18f" x="36" y="154.68" style="stroke: #000000; stroke-width: 0.8"/>
      </g>
     </g>
     <g id="text_6">
      <!-- 10 -->
      <g transform="translate(8.64 160.75875) scale(0.16 -0.16)">
       <use xlink:href="#DejaVuSans-31"/>
       <use xlink:href="#DejaVuSans-30" transform="translate(63.623047 0)"/>
      </g>
     </g>
    </g>
    <g id="ytick_3">
     <g id="line2d_6">
      <g>
       <use xlink:href="#m610b4ae18f" x="36" y="43.8" style="stroke: #000000; stroke-width: 0.8"/>
      </g>
     </g>
     <g id="text_7">
      <!-- 22 -->
      <g transform="translate(8.64 49.87875) scale(0.16 -0.16)">
       <defs>
        <path id="DejaVuSans-32" d="M 1228 531 
L 3431 531 
L 3431 0 
L 469 0 
L 469 531 
Q 828 903 1448 1529 
Q 2069 2156 2228 2338 
Q 2531 2678 2651 2914 
Q 2772 3150 2772 3378 
Q 2772 3750 2511 3984 
Q 2250 4219 1831 4219 
Q 1534 4219 1204 4116 
Q 875 4013 500 3803 
L 500 4441 
Q 881 4594 1212 4672 
Q 1544 4750 1819 4750 
Q 2544 4750 2975 4387 
Q 3406 4025 3406 3419 
Q 3406 3131 3298 2873 
Q 3191 2616 2906 2266 
Q 2828 2175 2409 1742 
Q 1991 1309 1228 531 
z
" transform="scale(0.015625)"/>
       </defs>
       <use xlink:href="#DejaVuSans-32"/>
       <use xlink:href="#DejaVuSans-32" transform="translate(63.623047 0)"/>
      </g>
     </g>
    </g>
    <g id="text_8">
     <!-- units of work completed -->
     <g transform="translate(1.3125 242.25125) rotate(-90) scale(0.16 -0.16)">
      <defs>
       <path id="DejaVuSans-75" d="M 544 1381 
L 544 3500 
L 1119 3500 
L 1119 1403 
Q 1119 906 1312 657 
Q 1506 409 1894 409 
Q 2359 409 2629 706 
Q 2900 1003 2900 1516 
L 2900 3500 
L 3475 3500 
L 3475 0 
L 2900 0 
L 2900 538 
Q 2691 219 2414 64 
Q 2138 -91 1772 -91 
Q 1169 -91 856 284 
Q 544 659 544 1381 
z
M 1991 3584 
L 1991 3584 
z
" transform="scale(0.015625)"/>
       <path id="DejaVuSans-6f" d="M 1959 3097 
Q 1497 3097 1228 2736 
Q 959 2375 959 1747 
Q 959 1119 1226 758 
Q 1494 397 1959 397 
Q 2419 397 2687 759 
Q 2956 1122 2956 1747 
Q 2956 2369 2687 2733 
Q 2419 3097 1959 3097 
z
M 1959 3584 
Q 2709 3584 3137 3096 
Q 3566 2609 3566 1747 
Q 3566 888 3137 398 
Q 2709 -91 1959 -91 
Q 1206 -91 779 398 
Q 353 888 353 1747 
Q 353 2609 779 3096 
Q 1206 3584 1959 3584 
z
" transform="scale(0.015625)"/>
       <path id="DejaVuSans-66" d="M 2375 4863 
L 2375 4384 
L 1825 4384 
Q 1516 4384 1395 4259 
Q 1275 4134 1275 3809 
L 1275 3500 
L 2222 3500 
L 2222 3053 
L 1275 3053 
L 1275 0 
L 697 0 
L 697 3053 
L 147 3053 
L 147 3500 
L 697 3500 
L 697 3744 
Q 697 4328 969 4595 
Q 1241 4863 1831 4863 
L 2375 4863 
z
" transform="scale(0.015625)"/>
       <path id="DejaVuSans-72" d="M 2631 2963 
Q 2534 3019 2420 3045 
Q 2306 3072 2169 3072 
Q 1681 3072 1420 2755 
Q 1159 2438 1159 1844 
L 1159 0 
L 581 0 
L 581 3500 
L 1159 3500 
L 1159 2956 
Q 1341 3275 1631 3429 
Q 1922 3584 2338 3584 
Q 2397 3584 2469 3576 
Q 2541 3569 2628 3553 
L 2631 2963 
z
" transform="scale(0.015625)"/>
       <path id="DejaVuSans-63" d="M 3122 3366 
L 3122 2828 
Q 2878 2963 2633 3030 
Q 2388 3097 2138 3097 
Q 1578 3097 1268 2742 
Q 959 2388 959 1747 
Q 959 1106 1268 751 
Q 1578 397 2138 397 
Q 2388 397 2633 464 
Q 2878 531 3122 666 
L 3122 134 
Q 2881 22 2623 -34 
Q 2366 -91 2075 -91 
Q 1284 -91 818 406 
Q 353 903 353 1747 
Q 353 2603 823 3093 
Q 1294 3584 2113 3584 
Q 2378 3584 2631 3529 
Q 2884 3475 3122 3366 
z
" transform="scale(0.015625)"/>
       <path id="DejaVuSans-70" d="M 1159 525 
L 1159 -1331 
L 581 -1331 
L 581 3500 
L 1159 3500 
L 1159 2969 
Q 1341 3281 1617 3432 
Q 1894 3584 2278 3584 
Q 2916 3584 3314 3078 
Q 3713 2572 3713 1747 
Q 3713 922 3314 415 
Q 2916 -91 2278 -91 
Q 1894 -91 1617 61 
Q 1341 213 1159 525 
z
M 3116 1747 
Q 3116 2381 2855 2742 
Q 2594 3103 2138 3103 
Q 1681 3103 1420 2742 
Q 1159 2381 1159 1747 
Q 1159 1113 1420 752 
Q 1681 391 2138 391 
Q 2594 391 2855 752 
Q 3116 1113 3116 1747 
z
" transform="scale(0.015625)"/>
       <path id="DejaVuSans-6c" d="M 603 4863 
L 1178 4863 
L 1178 0 
L 603 0 
L 603 4863 
z
" transform="scale(0.015625)"/>
       <path id="DejaVuSans-64" d="M 2906 2969 
L 2906 4863 
L 3481 4863 
L 3481 0 
L 2906 0 
L 2906 525 
Q 2725 213 2448 61 
Q 2172 -91 1784 -91 
Q 1150 -91 751 415 
Q 353 922 353 1747 
Q 353 2572 751 3078 
Q 1150 3584 1784 3584 
Q 2172 3584 2448 3432 
Q 2725 3281 2906 2969 
z
M 947 1747 
Q 947 1113 1208 752 
Q 1469 391 1925 391 
Q 2381 391 2643 752 
Q 2906 1113 2906 1747 
Q 2906 2381 2643 2742 
Q 2381 3103 1925 3103 
Q 1469 3103 1208 2742 
Q 947 2381 947 1747 
z
" transform="scale(0.015625)"/>
      </defs>
      <use xlink:href="#DejaVuSans-75"/>
      <use xlink:href="#DejaVuSans-6e" transform="translate(63.378906 0)"/>
      <use xlink:href="#DejaVuSans-69" transform="translate(126.757812 0)"/>
      <use xlink:href="#DejaVuSans-74" transform="translate(154.541016 0)"/>
      <use xlink:href="#DejaVuSans-73" transform="translate(193.75 0)"/>
      <use xlink:href="#DejaVuSans-20" transform="translate(245.849609 0)"/>
      <use xlink:href="#DejaVuSans-6f" transform="translate(277.636719 0)"/>
      <use xlink:href="#DejaVuSans-66" transform="translate(338.818359 0)"/>
      <use xlink:href="#DejaVuSans-20" transform="translate(374.023438 0)"/>
      <use xlink:href="#DejaVuSans-77" transform="translate(405.810547 0)"/>
      <use xlink:href="#DejaVuSans-6f" transform="translate(487.597656 0)"/>
      <use xlink:href="#DejaVuSans-72" transform="translate(548.779297 0)"/>
      <use xlink:href="#DejaVuSans-6b" transform="translate(589.892578 0)"/>
      <use xlink:href="#DejaVuSans-20" transform="translate(647.802734 0)"/>
      <use xlink:href="#DejaVuSans-63" transform="translate(679.589844 0)"/>
      <use xlink:href="#DejaVuSans-6f" transform="translate(734.570312 0)"/>
      <use xlink:href="#DejaVuSans-6d" transform="translate(795.751953 0)"/>
      <use xlink:href="#DejaVuSans-70" transform="translate(893.164062 0)"/>
      <use xlink:href="#DejaVuSans-6c" transform="translate(956.640625 0)"/>
      <use xlink:href="#DejaVuSans-65" transform="translate(984.423828 0)"/>
      <use xlink:href="#DejaVuSans-74" transform="translate(1045.947266 0)"/>
      <use xlink:href="#DejaVuSans-65" transform="translate(1085.15625 0)"/>
      <use xlink:href="#DejaVuSans-64" transform="translate(1146.679688 0)"/>
     </g>
    </g>
   </g>
   <g id="line2d_7">
    <path d="M 46.145455 247.08 
L 58.827273 227.61132 
L 71.509091 206.886 
L 84.190909 186.53028 
L 96.872727 167.1078 
L 109.554545 150.94704 
L 122.236364 137.32728 
L 134.918182 125.7588 
L 147.6 116.49108 
L 160.281818 108.91428 
L 172.963636 103.0284 
L 185.645455 97.44744 
L 198.327273 92.76276 
L 211.009091 88.2906 
L 223.690909 84.0864 
L 236.372727 80.35344 
L 249.054545 76.74984 
" clip-path="url(#p1d5fc571a3)" style="fill: none; stroke: #73c476; stroke-width: 2; stroke-linecap: square"/>
   </g>
   <g id="line2d_8">
    <path d="M 46.145455 247.08 
L 58.827273 163.92 
L 71.509091 126.96 
L 84.190909 117.72 
L 96.872727 117.72 
L 109.554545 108.48 
L 122.236364 108.48 
L 134.918182 90 
L 147.6 90 
L 160.281818 90 
L 172.963636 90 
L 185.645455 90 
L 198.327273 80.76 
L 211.009091 80.76 
L 223.690909 71.52 
L 236.372727 62.28 
L 249.054545 62.28 
" clip-path="url(#p1d5fc571a3)" style="fill: none; stroke-dasharray: 3.7,1.6; stroke-dashoffset: 0; stroke: #73c476"/>
   </g>
   <g id="line2d_9">
    <path d="M 46.145455 247.08 
L 58.827273 228.6 
L 71.509091 228.6 
L 84.190909 210.12 
L 96.872727 182.4 
L 109.554545 154.68 
L 122.236364 154.68 
L 134.918182 145.44 
L 147.6 145.44 
L 160.281818 108.48 
L 172.963636 99.24 
L 185.645455 90 
L 198.327273 90 
L 211.009091 90 
L 223.690909 71.52 
L 236.372727 62.28 
L 249.054545 62.28 
" clip-path="url(#p1d5fc571a3)" style="fill: none; stroke-dasharray: 3.7,1.6; stroke-dashoffset: 0; stroke: #73c476"/>
   </g>
   <g id="line2d_10">
    <path d="M 46.145455 247.08 
L 58.827273 237.84 
L 71.509091 219.36 
L 84.190909 200.88 
L 96.872727 136.2 
L 109.554545 117.72 
L 122.236364 108.48 
L 134.918182 108.48 
L 147.6 99.24 
L 160.281818 99.24 
L 172.963636 62.28 
L 185.645455 53.04 
L 198.327273 43.8 
L 211.009091 43.8 
L 223.690909 43.8 
L 236.372727 43.8 
L 249.054545 43.8 
" clip-path="url(#p1d5fc571a3)" style="fill: none; stroke-dasharray: 3.7,1.6; stroke-dashoffset: 0; stroke: #73c476"/>
   </g>
   <g id="line2d_11">
    <path d="M 46.145455 247.08 
L 58.827273 221.91024 
L 71.509091 195.65016 
L 84.190909 170.96088 
L 96.872727 148.41528 
L 109.554545 126.6828 
L 122.236364 108.73872 
L 134.918182 93.71448 
L 147.6 80.6676 
L 160.281818 71.23356 
L 172.963636 64.0818 
L 185.645455 58.73184 
L 198.327273 54.657 
L 211.009091 51.72792 
L 223.690909 49.46412 
L 236.372727 47.69928 
L 249.054545 46.68288 
" clip-path="url(#p1d5fc571a3)" style="fill: none; stroke: #2f974e; stroke-width: 2; stroke-linecap: square"/>
   </g>
   <g id="line2d_12">
    <path d="M 46.145455 247.08 
L 58.827273 219.36 
L 71.509091 210.12 
L 84.190909 173.16 
L 96.872727 145.44 
L 109.554545 145.44 
L 122.236364 136.2 
L 134.918182 126.96 
L 147.6 80.76 
L 160.281818 62.28 
L 172.963636 43.8 
L 185.645455 43.8 
L 198.327273 43.8 
L 211.009091 43.8 
L 223.690909 43.8 
L 236.372727 43.8 
L 249.054545 43.8 
" clip-path="url(#p1d5fc571a3)" style="fill: none; stroke-dasharray: 3.7,1.6; stroke-dashoffset: 0; stroke: #2f974e"/>
   </g>
   <g id="line2d_13">
    <path d="M 46.145455 247.08 
L 58.827273 200.88 
L 71.509091 191.64 
L 84.190909 182.4 
L 96.872727 182.4 
L 109.554545 182.4 
L 122.236364 136.2 
L 134.918182 99.24 
L 147.6 90 
L 160.281818 62.28 
L 172.963636 62.28 
L 185.645455 53.04 
L 198.327273 53.04 
L 211.009091 43.8 
L 223.690909 43.8 
L 236.372727 43.8 
L 249.054545 43.8 
" clip-path="url(#p1d5fc571a3)" style="fill: none; stroke-dasharray: 3.7,1.6; stroke-dashoffset: 0; stroke: #2f974e"/>
   </g>
   <g id="line2d_14">
    <path d="M 46.145455 247.08 
L 58.827273 210.12 
L 71.509091 182.4 
L 84.190909 182.4 
L 96.872727 182.4 
L 109.554545 154.68 
L 122.236364 136.2 
L 134.918182 136.2 
L 147.6 99.24 
L 160.281818 99.24 
L 172.963636 90 
L 185.645455 80.76 
L 198.327273 71.52 
L 211.009091 62.28 
L 223.690909 53.04 
L 236.372727 43.8 
L 249.054545 43.8 
" clip-path="url(#p1d5fc571a3)" style="fill: none; stroke-dasharray: 3.7,1.6; stroke-dashoffset: 0; stroke: #2f974e"/>
   </g>
   <g id="line2d_15">
    <path d="M 46.145455 247.08 
L 58.827273 208.4106 
L 71.509091 171.47832 
L 84.190909 138.63012 
L 96.872727 109.80132 
L 109.554545 87.46824 
L 122.236364 71.51076 
L 134.918182 60.68148 
L 147.6 53.63136 
L 160.281818 49.17768 
L 172.963636 46.64592 
L 185.645455 45.19524 
L 198.327273 44.48376 
L 211.009091 44.13264 
L 223.690909 43.97556 
L 236.372727 43.8924 
L 249.054545 43.83696 
" clip-path="url(#p1d5fc571a3)" style="fill: none; stroke: #006428; stroke-width: 2; stroke-linecap: square"/>
   </g>
   <g id="line2d_16">
    <path d="M 46.145455 247.08 
L 58.827273 247.08 
L 71.509091 228.6 
L 84.190909 219.36 
L 96.872727 191.64 
L 109.554545 117.72 
L 122.236364 90 
L 134.918182 90 
L 147.6 71.52 
L 160.281818 62.28 
L 172.963636 62.28 
L 185.645455 53.04 
L 198.327273 53.04 
L 211.009091 53.04 
L 223.690909 53.04 
L 236.372727 53.04 
L 249.054545 53.04 
" clip-path="url(#p1d5fc571a3)" style="fill: none; stroke-dasharray: 3.7,1.6; stroke-dashoffset: 0; stroke: #006428"/>
   </g>
   <g id="line2d_17">
    <path d="M 46.145455 247.08 
L 58.827273 173.16 
L 71.509091 163.92 
L 84.190909 163.92 
L 96.872727 126.96 
L 109.554545 62.28 
L 122.236364 53.04 
L 134.918182 43.8 
L 147.6 43.8 
L 160.281818 43.8 
L 172.963636 43.8 
L 185.645455 43.8 
L 198.327273 43.8 
L 211.009091 43.8 
L 223.690909 43.8 
L 236.372727 43.8 
L 249.054545 43.8 
" clip-path="url(#p1d5fc571a3)" style="fill: none; stroke-dasharray: 3.7,1.6; stroke-dashoffset: 0; stroke: #006428"/>
   </g>
   <g id="line2d_18">
    <path d="M 46.145455 247.08 
L 58.827273 237.84 
L 71.509091 136.2 
L 84.190909 108.48 
L 96.872727 90 
L 109.554545 53.04 
L 122.236364 43.8 
L 134.918182 43.8 
L 147.6 43.8 
L 160.281818 43.8 
L 172.963636 43.8 
L 185.645455 43.8 
L 198.327273 43.8 
L 211.009091 43.8 
L 223.690909 43.8 
L 236.372727 43.8 
L 249.054545 43.8 
" clip-path="url(#p1d5fc571a3)" style="fill: none; stroke-dasharray: 3.7,1.6; stroke-dashoffset: 0; stroke: #006428"/>
   </g>
   <g id="patch_3">
    <path d="M 36 256.32 
L 36 34.56 
" style="fill: none; stroke: #000000; stroke-linejoin: miter; stroke-linecap: square"/>
   </g>
   <g id="patch_4">
    <path d="M 36 256.32 
L 259.2 256.32 
" style="fill: none; stroke: #000000; stroke-linejoin: miter; stroke-linecap: square"/>
   </g>
   <g id="text_9">
    <!-- $\eta$ -->
    <g transform="translate(24.539091 20.4625) scale(0.16 -0.16)">
     <defs>
      <path id="DejaVuSans-Oblique-3b7" d="M 3703 2113 
L 3034 -1331 
L 2459 -1331 
L 3125 2094 
Q 3222 2591 3075 2838 
Q 2931 3084 2544 3084 
Q 2078 3084 1750 2788 
Q 1425 2491 1325 1978 
L 941 0 
L 363 0 
L 1044 3500 
L 1622 3500 
L 1516 2956 
Q 1781 3272 2094 3428 
Q 2403 3584 2769 3584 
Q 3372 3584 3609 3213 
Q 3844 2838 3703 2113 
z
" transform="scale(0.015625)"/>
     </defs>
     <use xlink:href="#DejaVuSans-Oblique-3b7"/>
    </g>
   </g>
   <g id="legend_1">
    <g id="line2d_19">
     <path d="M 65.581875 15.198613 
L 76.081875 15.198613 
L 86.581875 15.198613 
" style="fill: none; stroke: #73c476; stroke-width: 2; stroke-linecap: square"/>
    </g>
    <g id="text_10">
     <!-- 0.4 -->
     <g transform="translate(97.781875 20.098613) scale(0.14 -0.14)">
      <defs>
       <path id="DejaVuSans-2e" d="M 684 794 
L 1344 794 
L 1344 0 
L 684 0 
L 684 794 
z
" transform="scale(0.015625)"/>
       <path id="DejaVuSans-34" d="M 2419 4116 
L 825 1625 
L 2419 1625 
L 2419 4116 
z
M 2253 4666 
L 3047 4666 
L 3047 1625 
L 3713 1625 
L 3713 1100 
L 3047 1100 
L 3047 0 
L 2419 0 
L 2419 1100 
L 313 1100 
L 313 1709 
L 2253 4666 
z
" transform="scale(0.015625)"/>
      </defs>
      <use xlink:href="#DejaVuSans-30"/>
      <use xlink:href="#DejaVuSans-2e" transform="translate(63.623047 0)"/>
      <use xlink:href="#DejaVuSans-34" transform="translate(95.410156 0)"/>
     </g>
    </g>
    <g id="line2d_20">
     <path d="M 127.04625 15.198613 
L 137.54625 15.198613 
L 148.04625 15.198613 
" style="fill: none; stroke: #2f974e; stroke-width: 2; stroke-linecap: square"/>
    </g>
    <g id="text_11">
     <!-- 0.6 -->
     <g transform="translate(159.24625 20.098613) scale(0.14 -0.14)">
      <defs>
       <path id="DejaVuSans-36" d="M 2113 2584 
Q 1688 2584 1439 2293 
Q 1191 2003 1191 1497 
Q 1191 994 1439 701 
Q 1688 409 2113 409 
Q 2538 409 2786 701 
Q 3034 994 3034 1497 
Q 3034 2003 2786 2293 
Q 2538 2584 2113 2584 
z
M 3366 4563 
L 3366 3988 
Q 3128 4100 2886 4159 
Q 2644 4219 2406 4219 
Q 1781 4219 1451 3797 
Q 1122 3375 1075 2522 
Q 1259 2794 1537 2939 
Q 1816 3084 2150 3084 
Q 2853 3084 3261 2657 
Q 3669 2231 3669 1497 
Q 3669 778 3244 343 
Q 2819 -91 2113 -91 
Q 1303 -91 875 529 
Q 447 1150 447 2328 
Q 447 3434 972 4092 
Q 1497 4750 2381 4750 
Q 2619 4750 2861 4703 
Q 3103 4656 3366 4563 
z
" transform="scale(0.015625)"/>
      </defs>
      <use xlink:href="#DejaVuSans-30"/>
      <use xlink:href="#DejaVuSans-2e" transform="translate(63.623047 0)"/>
      <use xlink:href="#DejaVuSans-36" transform="translate(95.410156 0)"/>
     </g>
    </g>
    <g id="line2d_21">
     <path d="M 188.510625 15.198613 
L 199.010625 15.198613 
L 209.510625 15.198613 
" style="fill: none; stroke: #006428; stroke-width: 2; stroke-linecap: square"/>
    </g>
    <g id="text_12">
     <!-- 1 -->
     <g transform="translate(220.710625 20.098613) scale(0.14 -0.14)">
      <use xlink:href="#DejaVuSans-31"/>
     </g>
    </g>
   </g>
  </g>
 </g>
 <defs>
  <clipPath id="p1d5fc571a3">
   <rect x="36" y="34.56" width="223.2" height="221.76"/>
  </clipPath>
 </defs>
</svg>
